<svg id="Support" xmlns="http://www.w3.org/2000/svg" xmlns:xlink="http://www.w3.org/1999/xlink" width="223.95" height="83.96" viewBox="0 0 223.95 83.96">
  <defs>
    <clipPath id="clip-path">
      <rect id="Rechteck_423" data-name="Rechteck 423" width="223.949" height="83.96" fill="none"/>
    </clipPath>
  </defs>
  <g id="Layer_1" data-name="Layer 1">
    <g id="Gruppe_1098" data-name="Gruppe 1098" clip-path="url(#clip-path)">
      <path id="Pfad_1537" data-name="Pfad 1537" d="M0,0V83.96H223.949V0Z" fill="#007f33"/>
    </g>
    <path id="Pfad_1538" data-name="Pfad 1538" d="M66.694,36.757c0,1.439.339,2.116,1.947,2.116v1.1H60.6v-1.1c1.693,0,2.116-.592,2.116-1.947V27.447c0-1.354-.508-1.947-2.116-1.947V24.4H71.095c3.893,0,4.994,2.454,4.994,3.978a4.336,4.336,0,0,1-3.978,3.978c1.27,1.354,2.708,3.555,3.724,4.824s1.354,1.608,1.947,1.693v1.1H73.3c-.592-.169-2.285-2.539-3.639-4.486s-1.693-2.454-2.454-2.454h-.508v3.724Zm0-4.824h1.439c2.624,0,3.639-1.016,3.639-3.132a3.048,3.048,0,0,0-3.385-3.3H66.694Z" transform="translate(-9.31 -3.749)" fill="#fff"/>
    <path id="Pfad_1539" data-name="Pfad 1539" d="M93.065,39.61a3.326,3.326,0,0,1-2.624,1.523,2.285,2.285,0,0,1-2.285-1.523,4.994,4.994,0,0,1-3.639,1.523c-1.947,0-3.216-.931-3.216-2.37,0-2.878,4.4-3.555,6.856-4.147V32.924A1.447,1.447,0,0,0,86.547,31.4c-1.185,0-2.031.846-1.523,2.37l-3.047.931a4.943,4.943,0,0,1-.339-1.523c0-1.862,1.862-2.878,5.417-2.878,3.216,0,4.316.931,4.316,2.793v4.74c0,1.016.677,1.016,1.439.592l.254,1.185ZM88.24,35.632c-2.116.592-3.3,1.016-3.3,2.285a1.43,1.43,0,0,0,1.27,1.523,3.487,3.487,0,0,0,2.031-1.016Z" transform="translate(-12.49 -4.655)" fill="#fff"/>
    <path id="Pfad_1540" data-name="Pfad 1540" d="M112.125,30.924h-2.116V36.68c0,1.439.423,2.031,1.947,2.031h.423v1.1h-7.109v-1.1c1.27-.169,1.608-.762,1.608-2.031V30.84H105.1V29.486c1.1,0,1.354-.169,1.439-.339.423-.508.169-2.116,1.693-3.724a5.493,5.493,0,0,1,3.978-1.523c2.031,0,3.3.677,3.3,1.777a1.854,1.854,0,0,1-1.862,1.693c-1.439,0-1.523-2.2-2.708-2.2-.677,0-.931.592-.931,1.439v2.878h2.116v1.439Z" transform="translate(-16.147 -3.671)" fill="#fff"/>
    <path id="Pfad_1541" data-name="Pfad 1541" d="M120.525,30.924h-2.116V36.68c0,1.439.423,2.031,1.947,2.031h.423v1.1h-7.11v-1.1c1.27-.169,1.608-.762,1.608-2.031V30.84H113.5V29.486c1.1,0,1.354-.169,1.439-.339.423-.508.169-2.116,1.693-3.724A5.493,5.493,0,0,1,120.61,23.9c2.031,0,3.3.677,3.3,1.777a1.854,1.854,0,0,1-1.862,1.693c-1.439,0-1.439-2.2-2.708-2.2-.677,0-.931.592-.931,1.439v2.878h2.116Z" transform="translate(-17.437 -3.671)" fill="#fff"/>
    <path id="Pfad_1542" data-name="Pfad 1542" d="M133.01,38.271a6.424,6.424,0,0,1-5.417,2.878,4.8,4.8,0,0,1-4.994-5.163,5.22,5.22,0,0,1,5.5-5.586c2.962,0,4.824,1.777,4.824,4.655h-7.194a3.927,3.927,0,0,0,3.639,3.724,4.232,4.232,0,0,0,2.708-1.1l.931.592Zm-3.555-4.316c0-1.608-.677-2.539-1.862-2.539s-1.947,1.016-1.947,2.539Z" transform="translate(-18.835 -4.67)" fill="#fff"/>
    <path id="Pfad_1543" data-name="Pfad 1543" d="M140.824,36.711c0,1.354.339,2.031,1.693,2.031v1.1H136v-1.1c1.354,0,1.862-.677,1.862-2.031V32.056L136,31.209v-.762l3.978-1.1h.931v7.363ZM139.132,24.1a1.947,1.947,0,1,1-1.947,1.947,1.913,1.913,0,0,1,1.947-1.947Z" transform="translate(-20.894 -3.702)" fill="#fff"/>
    <path id="Pfad_1544" data-name="Pfad 1544" d="M101.024,36.711c0,1.354.339,2.031,1.693,2.031v1.1H96.2v-1.1c1.354,0,1.862-.677,1.862-2.031V32.056L96.2,31.209v-.762l3.978-1.1h.931v7.363ZM99.332,24.1a1.947,1.947,0,1,1-1.947,1.947A1.913,1.913,0,0,1,99.332,24.1Z" transform="translate(-14.779 -3.702)" fill="#fff"/>
    <path id="Pfad_1545" data-name="Pfad 1545" d="M153.025,33.6H152.01a3.749,3.749,0,0,0-3.216-2.2c-.931,0-1.608.423-1.608,1.016,0,1.862,6.432,1.27,6.432,5.332,0,2.031-1.608,3.3-4.147,3.3a11.68,11.68,0,0,1-4.316-.931l-.169-2.624H146a4.019,4.019,0,0,0,3.47,2.37c1.354,0,1.862-.592,1.862-1.185,0-1.862-6.432-1.27-6.432-5.163,0-2.37,2.116-3.216,4.147-3.216a12.7,12.7,0,0,1,3.809.762l.169,2.539Z" transform="translate(-22.261 -4.655)" fill="#fff"/>
    <path id="Pfad_1546" data-name="Pfad 1546" d="M167.01,38.271a6.424,6.424,0,0,1-5.417,2.878,4.8,4.8,0,0,1-4.994-5.163,5.22,5.22,0,0,1,5.5-5.586c2.962,0,4.824,1.777,4.824,4.655h-7.194a3.927,3.927,0,0,0,3.639,3.724,4.232,4.232,0,0,0,2.708-1.1Zm-3.555-4.316c0-1.608-.677-2.539-1.862-2.539s-1.947,1.016-1.947,2.539Z" transform="translate(-24.058 -4.67)" fill="#fff"/>
    <path id="Pfad_1547" data-name="Pfad 1547" d="M174.609,37.863c0,1.1.254,1.777,1.439,1.947v1.1H169.7v-1.1c1.1-.085,1.608-.677,1.608-1.862V33.462L169.7,32.277v-.592l3.724-1.185h1.1v1.862a4.723,4.723,0,0,1,3.724-1.862c2.031,0,3.3,1.1,3.3,3.385V37.61c0,1.693.254,2.116,1.439,2.37v1.1h-6.094v-1.1c1.016-.169,1.354-.762,1.354-1.947V34.309c0-1.1-.508-1.947-1.608-1.947a4.3,4.3,0,0,0-2.116.762v4.74Z" transform="translate(-26.071 -4.686)" fill="#fff"/>
    <path id="Pfad_1548" data-name="Pfad 1548" d="M32.419,16.4a14.194,14.194,0,1,0,10.062,4.157A14.219,14.219,0,0,0,32.419,16.4ZM26.071,41.453l6.263-6.432,6.348,6.432a12.594,12.594,0,0,1-12.611,0ZM41.9,38.829c-1.016-.931-4.147-4.063-6.771-6.6l1.016-1.1a1.253,1.253,0,0,0,.339-.931c0-.169,0-1.354.085-2.2s.677-1.608,1.185-1.523c.254.085.423.339.085.846a3.132,3.132,0,0,0-.423.931.9.9,0,0,0,.762,1.016.965.965,0,0,0,.592-.254c.085-.085,1.608-1.354,2.2-1.862a1.253,1.253,0,0,1,1.27-.339,11,11,0,0,0-1.185-2.793,3.225,3.225,0,0,0-1.523-1.1c-.762-.254-1.777,0-3.047,1.862A42.825,42.825,0,0,1,33.435,28.5l-1.016,1.016A10.952,10.952,0,0,1,31.4,28.5a31.408,31.408,0,0,1-3.047-3.724c-1.27-1.862-2.285-2.031-3.047-1.862a2.751,2.751,0,0,0-1.523,1.1A9.843,9.843,0,0,0,22.6,26.81a1.54,1.54,0,0,1,1.27.339c.677.508,2.116,1.777,2.2,1.862a.965.965,0,0,0,.592.254.846.846,0,0,0,.762-1.016A3.132,3.132,0,0,0,27,27.318c-.339-.508-.169-.846.085-.846.508-.085,1.1.592,1.185,1.523.085.762.085,2.031.085,2.2a1.253,1.253,0,0,0,.339.931l1.016,1.1c-2.539,2.454-5.671,5.5-6.771,6.517a12.611,12.611,0,1,1,22.175-8.21A13.406,13.406,0,0,1,41.9,38.829Z" transform="translate(-2.796 -2.52)" fill="#fff"/>
    <path id="Pfad_1549" data-name="Pfad 1549" d="M69.37,66.8a3.259,3.259,0,0,0-1.862-1.947,3.834,3.834,0,0,0-1.354-.254,4.376,4.376,0,0,0-1.439.254,3.385,3.385,0,0,0-1.1.846A5.417,5.417,0,0,0,62.6,69.086a5.137,5.137,0,0,0,.931,3.132A3.3,3.3,0,0,0,66.239,73.4a3.572,3.572,0,0,0,1.777-.423,3.876,3.876,0,0,0,1.354-1.608l-.762-.423a6.774,6.774,0,0,1-.423.931,2.124,2.124,0,0,1-1.777.846,2.59,2.59,0,0,1-2.793-2.2A6.17,6.17,0,0,1,63.446,69a4.917,4.917,0,0,1,.508-2.37,2.691,2.691,0,0,1,.931-1.016,2.945,2.945,0,0,1,1.27-.254,2.124,2.124,0,0,1,2.031,1.016,2.539,2.539,0,0,1,.339.846l.846-.423Zm6.094,6.432v-.592a1.016,1.016,0,0,1-.677-.169c-.169-.169-.169-.508-.169-1.1V69.594a2.649,2.649,0,0,0-.339-1.608,2.59,2.59,0,0,0-1.693-.592,2.141,2.141,0,0,0-1.862.846,2.014,2.014,0,0,0-.339,1.016l.762.169a1.024,1.024,0,0,1,.254-.846,1.49,1.49,0,0,1,1.27-.508c.846,0,1.185.339,1.27.762a1.261,1.261,0,0,1,.085.508v.339l-.677.169c-.339.085-.677.169-1.1.254a3.487,3.487,0,0,0-1.777.846,1.786,1.786,0,0,0-.339.931,1.27,1.27,0,0,0,.423,1.016,1.693,1.693,0,0,0,1.354.508,2.268,2.268,0,0,0,1.693-.677.728.728,0,0,0,.254-.508.931.931,0,0,0,.254.762A2.971,2.971,0,0,0,75.464,73.233Zm-1.439-2.539a2.759,2.759,0,0,1-.169,1.016,1.972,1.972,0,0,1-1.777,1.1,1.075,1.075,0,0,1-1.016-.508,3.661,3.661,0,0,1-.085-.423,1.041,1.041,0,0,1,.339-.677,8.464,8.464,0,0,1,2.37-.762l.339-.085v.339Zm6.094.931a1.32,1.32,0,0,0-.254-.846,2.454,2.454,0,0,0-1.27-.762L78,69.932c-.508-.085-1.185-.254-1.185-.931a.846.846,0,0,1,.169-.508q.127-.254.254-.254a1.752,1.752,0,0,1,.931-.254c.592,0,1.27.169,1.354.846l.677-.169a2.023,2.023,0,0,0-.592-.931,2.539,2.539,0,0,0-1.354-.339,1.972,1.972,0,0,0-1.523.508,1.557,1.557,0,0,0-.508,1.1,1.693,1.693,0,0,0,.254.931,2.954,2.954,0,0,0,1.862.677,2.218,2.218,0,0,1,1.1.508,1.2,1.2,0,0,1,.169.508,1.176,1.176,0,0,1-.423.846,1.473,1.473,0,0,1-1.016.254,1.693,1.693,0,0,1-1.608-1.1l-.677.254a2.539,2.539,0,0,0,.339.677,2.133,2.133,0,0,0,1.862.846,2.175,2.175,0,0,0,1.947-1.016,3.276,3.276,0,0,0,.085-.762Zm5.247,0a1.32,1.32,0,0,0-.254-.846,2.454,2.454,0,0,0-1.27-.762l-.592-.085c-.508-.085-1.185-.254-1.185-.931a.846.846,0,0,1,.169-.508q.127-.254.254-.254a1.752,1.752,0,0,1,.931-.254c.592,0,1.27.169,1.354.846l.677-.169a2.023,2.023,0,0,0-.592-.931,2.539,2.539,0,0,0-1.354-.339,1.972,1.972,0,0,0-1.523.508,1.557,1.557,0,0,0-.508,1.1,1.27,1.27,0,0,0,.339.931,2.954,2.954,0,0,0,1.862.677,2.218,2.218,0,0,1,1.1.508,1.2,1.2,0,0,1,.169.508,1.176,1.176,0,0,1-.423.846,1.473,1.473,0,0,1-1.016.254,1.693,1.693,0,0,1-1.608-1.1l-.677.254a2.539,2.539,0,0,0,.339.677,2.133,2.133,0,0,0,1.862.846,2.175,2.175,0,0,0,1.947-1.016v-.762Zm6.179,1.608v-.592a1.016,1.016,0,0,1-.677-.169c-.169-.169-.169-.508-.169-1.1V69.594a2.649,2.649,0,0,0-.339-1.608,2.59,2.59,0,0,0-1.693-.592,2.141,2.141,0,0,0-1.862.846,2.014,2.014,0,0,0-.339,1.016l.762.169a1.024,1.024,0,0,1,.254-.846,1.49,1.49,0,0,1,1.27-.508c.846,0,1.185.339,1.27.762a1.261,1.261,0,0,1,.085.508v.339l-.677.169c-.339.085-.677.169-1.1.254a3.487,3.487,0,0,0-1.777.846,1.786,1.786,0,0,0-.339.931,1.27,1.27,0,0,0,.423,1.016,1.693,1.693,0,0,0,1.354.508,2.107,2.107,0,0,0,1.693-.677,1.769,1.769,0,0,0,.339-.508.931.931,0,0,0,.254.762A2.184,2.184,0,0,0,91.545,73.233Zm-1.523-2.539a2.759,2.759,0,0,1-.169,1.016,1.972,1.972,0,0,1-1.777,1.1,1.075,1.075,0,0,1-1.016-.508,3.666,3.666,0,0,1-.085-.423,1.041,1.041,0,0,1,.339-.677,8.463,8.463,0,0,1,2.37-.762l.339-.085v.339Zm11.6,2.539-2.708-3.724a2.759,2.759,0,0,0,1.016-.169,2.116,2.116,0,0,0,1.439-2.116,2.285,2.285,0,0,0-.339-1.27,2.429,2.429,0,0,0-2.031-1.1H95.184v8.379h.846V69.509h1.947l2.624,3.724ZM100.6,67.224a2.15,2.15,0,0,1-.254,1.016,1.693,1.693,0,0,1-1.608.592H96.115v-3.3h2.624a1.989,1.989,0,0,1,1.777.677,5.289,5.289,0,0,1,.085,1.016Zm6.856,6.009v-.592a1.016,1.016,0,0,1-.677-.169c-.169-.169-.169-.508-.169-1.1V69.594a2.649,2.649,0,0,0-.339-1.608,2.59,2.59,0,0,0-1.693-.592,2.141,2.141,0,0,0-1.862.846,2.014,2.014,0,0,0-.339,1.016l.762.169a1.024,1.024,0,0,1,.254-.846,1.49,1.49,0,0,1,1.27-.508c.846,0,1.185.339,1.27.762a1.261,1.261,0,0,1,.085.508v.339l-.677.169c-.339.085-.677.169-1.1.254a3.487,3.487,0,0,0-1.777.846,1.786,1.786,0,0,0-.339.931,1.27,1.27,0,0,0,.423,1.016,1.693,1.693,0,0,0,1.354.508,2.268,2.268,0,0,0,1.693-.677.728.728,0,0,0,.254-.508.931.931,0,0,0,.254.762A2.971,2.971,0,0,0,107.457,73.233Zm-1.439-2.539a2.759,2.759,0,0,1-.169,1.016,1.972,1.972,0,0,1-1.777,1.1,1.075,1.075,0,0,1-1.016-.508,3.665,3.665,0,0,1-.085-.423,1.041,1.041,0,0,1,.339-.677,8.463,8.463,0,0,1,2.37-.762l.339-.085v.339Zm2.878-4.486v-1.1h-.677v1.1Zm0,7.025V67.562h-.677v5.671Zm4.147-5.078v-.592h-1.27v-1.1c0-.508,0-.762.169-.931a.5.5,0,0,1,.423-.169,1.092,1.092,0,0,1,.677.169v-.677a2.1,2.1,0,0,0-.762-.085c-.762,0-1.1.339-1.185.677a3.817,3.817,0,0,0-.085,1.1v1.1h-1.27v.592h1.27v5.078h.677V68.239h1.354Zm3.47,0v-.592h-1.27v-1.1c0-.508,0-.762.169-.931a.5.5,0,0,1,.423-.169,1.092,1.092,0,0,1,.677.169v-.677a2.1,2.1,0,0,0-.762-.085c-.762,0-1.1.339-1.185.677a3.817,3.817,0,0,0-.085,1.1v1.1h-1.27v.592h1.27v5.078h.677V68.239h1.354Zm5.671,3.555-.677-.169a1.828,1.828,0,0,1-1.777,1.185,1.693,1.693,0,0,1-1.777-1.354,2.632,2.632,0,0,1-.085-.931h4.4v-.169a3.2,3.2,0,0,0-.762-2.031,2.361,2.361,0,0,0-1.777-.846,2.615,2.615,0,0,0-2.454,1.777,3.546,3.546,0,0,0-.169,1.185,3.081,3.081,0,0,0,1.439,2.708,2.945,2.945,0,0,0,1.27.254,2.319,2.319,0,0,0,2.031-.931,4.994,4.994,0,0,0,.339-.677Zm-.762-1.862h-3.555a1.363,1.363,0,0,1,.254-.762,1.693,1.693,0,0,1,1.608-1.016,1.786,1.786,0,0,1,1.693,1.777Zm2.624-3.639v-1.1h-.677v1.1Zm0,7.025V67.562h-.677v5.671Zm5.417-1.608a1.32,1.32,0,0,0-.254-.846,2.454,2.454,0,0,0-1.27-.762l-.592-.085c-.508-.085-1.185-.254-1.185-.931a.846.846,0,0,1,.169-.508q.127-.254.254-.254a1.752,1.752,0,0,1,.931-.254c.592,0,1.27.169,1.354.846l.677-.169a2.023,2.023,0,0,0-.592-.931,2.539,2.539,0,0,0-1.354-.339,1.972,1.972,0,0,0-1.523.508,1.557,1.557,0,0,0-.508,1.1,1.693,1.693,0,0,0,.254.931,2.954,2.954,0,0,0,1.862.677,2.218,2.218,0,0,1,1.1.508,1.2,1.2,0,0,1,.169.508,1.176,1.176,0,0,1-.423.846,1.473,1.473,0,0,1-1.016.254,1.76,1.76,0,0,1-1.608-1.1l-.677.254a2.54,2.54,0,0,0,.339.677,2.133,2.133,0,0,0,1.862.846,2.175,2.175,0,0,0,1.947-1.016,3.276,3.276,0,0,0,.085-.762Zm6.094.085-.677-.169a1.828,1.828,0,0,1-1.777,1.185,1.693,1.693,0,0,1-1.777-1.354,2.633,2.633,0,0,1-.085-.931h4.4v-.169a3.2,3.2,0,0,0-.762-2.031,2.361,2.361,0,0,0-1.777-.846,2.615,2.615,0,0,0-2.454,1.777,3.546,3.546,0,0,0-.169,1.185,3.081,3.081,0,0,0,1.439,2.708,2.945,2.945,0,0,0,1.27.254,2.319,2.319,0,0,0,2.031-.931,4.991,4.991,0,0,0,.339-.677Zm-.846-1.862h-3.555a1.363,1.363,0,0,1,.254-.762,1.693,1.693,0,0,1,1.608-1.016C133.61,68.07,134.541,68.409,134.71,69.847Zm6.348,3.385V70.271a5.264,5.264,0,0,0-.169-1.862,1.693,1.693,0,0,0-1.693-.931,1.566,1.566,0,0,0-1.354.508,4.231,4.231,0,0,0-.423.592V67.562h-.677v5.671h.677V70.778a6.061,6.061,0,0,1,.085-1.439,1.648,1.648,0,0,1,2.37-1.1.846.846,0,0,1,.423.508,3.546,3.546,0,0,1,.169,1.523v2.962Zm8.8,0V64.854h-.677v3.639a1.456,1.456,0,0,0-.339-.592,1.693,1.693,0,0,0-1.27-.423,2.463,2.463,0,0,0-1.185.339A3.081,3.081,0,0,0,145.2,70.44a3.165,3.165,0,0,0,1.185,2.624,1.947,1.947,0,0,0,1.185.339,1.837,1.837,0,0,0,1.777-1.185v1.016Zm-.677-2.793a2.962,2.962,0,0,1-.508,1.862,1.4,1.4,0,0,1-1.1.423c-1.693,0-1.693-2.116-1.693-2.285a2.133,2.133,0,0,1,1.016-2.116,1.549,1.549,0,0,1,.762-.169,2.056,2.056,0,0,1,.931.254c.423.339.592.931.592,2.031Zm7.025,1.27-.677-.169a1.828,1.828,0,0,1-1.777,1.185,1.693,1.693,0,0,1-1.777-1.354,2.633,2.633,0,0,1-.085-.931h4.4v-.169a3.2,3.2,0,0,0-.762-2.031,2.361,2.361,0,0,0-1.777-.846A2.615,2.615,0,0,0,151.3,69.17a3.546,3.546,0,0,0-.169,1.185,3.081,3.081,0,0,0,1.439,2.708,2.945,2.945,0,0,0,1.27.254,2.319,2.319,0,0,0,2.031-.931,5.025,5.025,0,0,1,.339-.677Zm-.846-1.862h-3.555a1.363,1.363,0,0,1,.254-.762,1.693,1.693,0,0,1,1.608-1.016C154.261,68.07,155.192,68.409,155.361,69.847Zm2.708,3.385V64.854h-.677v8.379Zm2.2,0V64.854h-.677v8.379Zm6.432,0v-.592a1.016,1.016,0,0,1-.677-.169c-.169-.169-.169-.508-.169-1.1V69.594a2.649,2.649,0,0,0-.339-1.608,2.59,2.59,0,0,0-1.693-.592,2.141,2.141,0,0,0-1.862.846,2.014,2.014,0,0,0-.339,1.016l.762.169a1.024,1.024,0,0,1,.254-.846,1.49,1.49,0,0,1,1.27-.508c.846,0,1.185.339,1.27.762a1.261,1.261,0,0,1,.085.508v.339l-.677.169c-.339.085-.677.169-1.1.254a3.487,3.487,0,0,0-1.777.846,1.786,1.786,0,0,0-.339.931,1.27,1.27,0,0,0,.423,1.016,1.693,1.693,0,0,0,1.354.508,2.268,2.268,0,0,0,1.693-.677,1.768,1.768,0,0,0,.339-.508.931.931,0,0,0,.254.762,2.184,2.184,0,0,0,1.27.254Zm-1.523-2.539a2.759,2.759,0,0,1-.169,1.016,1.972,1.972,0,0,1-1.777,1.1,1.075,1.075,0,0,1-1.016-.508,3.663,3.663,0,0,1-.085-.423,1.041,1.041,0,0,1,.339-.677,8.464,8.464,0,0,1,2.37-.762l.339-.085Zm11.257-5.84h-.846l-2.624,7.279-2.539-7.279h-.846l3.047,8.379h.677Zm5.078,8.379v-.592a1.016,1.016,0,0,1-.677-.169c-.169-.169-.169-.508-.169-1.1V69.594a2.649,2.649,0,0,0-.339-1.608,2.59,2.59,0,0,0-1.693-.592,2.141,2.141,0,0,0-1.862.846,2.014,2.014,0,0,0-.339,1.016l.762.169a1.024,1.024,0,0,1,.254-.846,1.49,1.49,0,0,1,1.27-.508c.846,0,1.185.339,1.27.762a1.261,1.261,0,0,1,.085.508v.339l-.677.169c-.339.085-.677.169-1.1.254a3.487,3.487,0,0,0-1.777.846,1.786,1.786,0,0,0-.339.931,1.27,1.27,0,0,0,.423,1.016,1.693,1.693,0,0,0,1.354.508,2.268,2.268,0,0,0,1.693-.677.728.728,0,0,0,.254-.508.931.931,0,0,0,.254.762,2.734,2.734,0,0,0,1.354.254Zm-1.523-2.539a2.759,2.759,0,0,1-.169,1.016,1.972,1.972,0,0,1-1.777,1.1,1.075,1.075,0,0,1-1.016-.508,3.666,3.666,0,0,1-.085-.423,1.041,1.041,0,0,1,.339-.677,8.464,8.464,0,0,1,2.37-.762l.339-.085v.339Zm2.962,2.539V64.854h-.677v8.379Zm2.2,0V64.854h-.677v8.379Zm6.348-1.523-.677-.169a1.828,1.828,0,0,1-1.777,1.185,1.693,1.693,0,0,1-1.777-1.354,2.633,2.633,0,0,1-.085-.931h4.4v-.169a3.2,3.2,0,0,0-.762-2.031,2.361,2.361,0,0,0-1.777-.846,2.615,2.615,0,0,0-2.454,1.777,3.546,3.546,0,0,0-.169,1.185,3.081,3.081,0,0,0,1.439,2.708,2.945,2.945,0,0,0,1.27.254,2.319,2.319,0,0,0,2.031-.931,4.992,4.992,0,0,0,.339-.677Zm-.846-1.862H187.1a1.363,1.363,0,0,1,.254-.762,1.693,1.693,0,0,1,1.608-1.016C189.555,68.07,190.486,68.409,190.655,69.847Zm5.671,3.385V64.854h-.762v8.379Zm5.5-1.608a1.32,1.32,0,0,0-.254-.846,2.454,2.454,0,0,0-1.27-.762l-.592-.085c-.508-.085-1.185-.254-1.185-.931a.846.846,0,0,1,.169-.508q.127-.254.254-.254a1.752,1.752,0,0,1,.931-.254c.592,0,1.27.169,1.354.846l.677-.169a2.022,2.022,0,0,0-.592-.931,2.539,2.539,0,0,0-1.354-.339,1.972,1.972,0,0,0-1.523.508,1.557,1.557,0,0,0-.508,1.1,1.693,1.693,0,0,0,.254.931,2.954,2.954,0,0,0,1.862.677c.592.169.931.254,1.1.508a1.2,1.2,0,0,1,.169.508,1.176,1.176,0,0,1-.423.846,1.473,1.473,0,0,1-1.016.254,1.693,1.693,0,0,1-1.608-1.1l-.677.254a2.539,2.539,0,0,0,.339.677,2.133,2.133,0,0,0,1.862.846,2.175,2.175,0,0,0,1.947-1.016,3.275,3.275,0,0,0,.085-.762Zm6.263,1.608v-.592a1.016,1.016,0,0,1-.677-.169c-.169-.169-.169-.508-.169-1.1V69.594a2.649,2.649,0,0,0-.339-1.608,2.59,2.59,0,0,0-1.693-.592,2.141,2.141,0,0,0-1.862.846,2.014,2.014,0,0,0-.339,1.016l.762.169a1.024,1.024,0,0,1,.254-.846,1.49,1.49,0,0,1,1.27-.508c.846,0,1.185.339,1.27.762a1.262,1.262,0,0,1,.085.508v.339l-.677.169c-.339.085-.677.169-1.1.254a3.487,3.487,0,0,0-1.777.846,1.786,1.786,0,0,0-.339.931,1.27,1.27,0,0,0,.423,1.016,1.693,1.693,0,0,0,1.354.508,2.268,2.268,0,0,0,1.693-.677.728.728,0,0,0,.254-.508.931.931,0,0,0,.254.762,2.734,2.734,0,0,0,1.354.254Zm-1.523-2.539a2.758,2.758,0,0,1-.169,1.016,1.972,1.972,0,0,1-1.777,1.1A1.075,1.075,0,0,1,203.6,72.3a3.663,3.663,0,0,1-.085-.423,1.041,1.041,0,0,1,.339-.677,8.464,8.464,0,0,1,2.37-.762l.339-.085Zm4.994-3.216h-.423a1.82,1.82,0,0,0-.846.169,1.608,1.608,0,0,0-.677.592c-.085.085-.085.169-.169.254v-.931h-.677v5.671h.677V70.778a5.635,5.635,0,0,1,.085-1.354,1.481,1.481,0,0,1,1.523-1.354h.423l.085-.592Zm5.247,4.486-.677-.169a1.735,1.735,0,0,1-2.285.762,2.107,2.107,0,0,1-.592-.423,2.988,2.988,0,0,1-.508-1.777,2.59,2.59,0,0,1,.762-1.947,1.566,1.566,0,0,1,1.185-.423,1.6,1.6,0,0,1,1.523.931l.677-.169a2.277,2.277,0,0,0-.508-.762,2.209,2.209,0,0,0-1.608-.592,2.539,2.539,0,0,0-2.539,1.862,2.877,2.877,0,0,0-.169,1.185,3.055,3.055,0,0,0,.846,2.285,2.725,2.725,0,0,0,1.693.677,2.209,2.209,0,0,0,1.608-.592,3.038,3.038,0,0,0,.592-.846Zm5.671-1.608a3.2,3.2,0,0,0-.846-2.285,2.438,2.438,0,0,0-1.693-.592,2.285,2.285,0,0,0-2.285,1.608,3.622,3.622,0,0,0-.254,1.439,3.089,3.089,0,0,0,.592,1.947,2.4,2.4,0,0,0,1.947.931,2.539,2.539,0,0,0,2.455-1.862,7.45,7.45,0,0,0,.085-1.185Zm-.762.085c0,1.777-1.016,2.285-1.862,2.285a1.43,1.43,0,0,1-1.016-.339,2.59,2.59,0,0,1-.762-1.947,2.277,2.277,0,0,1,.846-2.116,1.54,1.54,0,0,1,1.016-.339c.931,0,1.862.592,1.777,2.454Z" transform="translate(-9.616 -9.925)" fill="#fff"/>
    <path id="Pfad_1550" data-name="Pfad 1550" d="M69.432,58.263l-2.708-3.724a2.759,2.759,0,0,0,1.016-.169,2.116,2.116,0,0,0,1.439-2.116,2.285,2.285,0,0,0-.339-1.27,2.429,2.429,0,0,0-2.031-1.1H63v8.379h.846V54.539h1.947l2.624,3.724Zm-1.016-6.009a1.43,1.43,0,0,1-.339,1.016,1.693,1.693,0,0,1-1.608.592H63.846v-3.3H66.47a1.989,1.989,0,0,1,1.777.677A2.734,2.734,0,0,1,68.417,52.253Zm7.11,6.009V57.67a1.016,1.016,0,0,1-.677-.169c-.169-.169-.169-.508-.169-1.1V54.623a2.649,2.649,0,0,0-.339-1.608,2.59,2.59,0,0,0-1.693-.592,2.141,2.141,0,0,0-1.862.846,2.014,2.014,0,0,0-.339,1.016l.762.169a1.024,1.024,0,0,1,.254-.846,1.49,1.49,0,0,1,1.27-.508c.846,0,1.185.339,1.27.762a1.261,1.261,0,0,1,.085.508v.339l-.677.169c-.339.085-.677.169-1.1.254a3.487,3.487,0,0,0-1.777.846,1.786,1.786,0,0,0-.339.931,1.27,1.27,0,0,0,.423,1.016,1.693,1.693,0,0,0,1.354.508,2.268,2.268,0,0,0,1.693-.677A1.769,1.769,0,0,0,74,57.247a.931.931,0,0,0,.254.762,2.006,2.006,0,0,0,1.27.254ZM74,55.724a2.759,2.759,0,0,1-.169,1.016,1.972,1.972,0,0,1-1.777,1.1,1.075,1.075,0,0,1-1.016-.508,3.663,3.663,0,0,1-.085-.423,1.041,1.041,0,0,1,.339-.677,8.464,8.464,0,0,1,2.37-.762L74,55.385v.339Zm3.132-4.486v-1.1h-.677v1.1Zm0,7.025V52.592h-.677v5.671Zm4.316-5.078v-.592h-1.27v-1.1c0-.508,0-.762.169-.931a.5.5,0,0,1,.423-.169,1.092,1.092,0,0,1,.677.169v-.677a2.1,2.1,0,0,0-.762-.085c-.762,0-1.1.339-1.185.677a3.816,3.816,0,0,0-.085,1.1v1.1H78.235v.592H79.5v5.078h.677V53.269h1.27Zm3.639,0v-.592h-1.27v-1.1c0-.508,0-.762.169-.931a.5.5,0,0,1,.423-.169,1.092,1.092,0,0,1,.677.169v-.677a2.1,2.1,0,0,0-.762-.085c-.762,0-1.1.339-1.185.677a3.817,3.817,0,0,0-.085,1.1v1.1h-1.27v.592h1.27v5.078h.677V53.269H85.09Zm5.84,3.555-.677-.169a1.828,1.828,0,0,1-1.777,1.185A1.693,1.693,0,0,1,86.7,56.4a2.632,2.632,0,0,1-.085-.931h4.4V55.3a3.2,3.2,0,0,0-.762-2.031,2.361,2.361,0,0,0-1.777-.846A2.615,2.615,0,0,0,86.021,54.2a3.546,3.546,0,0,0-.169,1.185,3.081,3.081,0,0,0,1.439,2.708,2.945,2.945,0,0,0,1.27.254,2.319,2.319,0,0,0,2.031-.931,5.028,5.028,0,0,1,.339-.677Zm-.846-1.862H86.529a1.363,1.363,0,0,1,.254-.762A1.693,1.693,0,0,1,88.391,53.1C88.984,53.1,89.915,53.438,90.084,54.877Zm2.878-3.639v-1.1h-.677v1.1Zm0,7.025V52.592h-.677v5.671Zm5.586-1.608a1.32,1.32,0,0,0-.254-.846,2.454,2.454,0,0,0-1.27-.762l-.592-.085c-.508-.085-1.185-.254-1.185-.931a.846.846,0,0,1,.169-.508q.127-.254.254-.254a1.752,1.752,0,0,1,.931-.254c.592,0,1.27.169,1.354.846l.677-.169a2.023,2.023,0,0,0-.592-.931,2.539,2.539,0,0,0-1.354-.339,1.972,1.972,0,0,0-1.523.508,1.557,1.557,0,0,0-.508,1.1,1.693,1.693,0,0,0,.254.931,2.954,2.954,0,0,0,1.862.677,2.218,2.218,0,0,1,1.1.508,1.2,1.2,0,0,1,.169.508,1.176,1.176,0,0,1-.423.846,1.473,1.473,0,0,1-1.016.254,1.693,1.693,0,0,1-1.608-1.1l-.677.254a2.539,2.539,0,0,0,.339.677,2.133,2.133,0,0,0,1.862.846,2.175,2.175,0,0,0,1.947-1.016,3.276,3.276,0,0,0,.085-.762Zm6.263.085-.677-.169a1.828,1.828,0,0,1-1.777,1.185,1.693,1.693,0,0,1-1.777-1.354,2.632,2.632,0,0,1-.085-.931h4.4V55.3a3.2,3.2,0,0,0-.762-2.031,2.361,2.361,0,0,0-1.777-.846A2.615,2.615,0,0,0,99.9,54.2a3.546,3.546,0,0,0-.169,1.185,3.081,3.081,0,0,0,1.439,2.708,2.945,2.945,0,0,0,1.27.254,2.319,2.319,0,0,0,2.031-.931A5.027,5.027,0,0,1,104.811,56.739Zm-.846-1.862H100.41a1.363,1.363,0,0,1,.254-.762,1.693,1.693,0,0,1,1.608-1.016c.592,0,1.523.339,1.693,1.777Zm6.517,3.385V55.3a5.264,5.264,0,0,0-.169-1.862,1.693,1.693,0,0,0-1.693-.931,1.566,1.566,0,0,0-1.354.508,4.232,4.232,0,0,0-.423.592V52.592h-.677v5.671h.677V55.808a6.061,6.061,0,0,1,.085-1.439,1.648,1.648,0,0,1,2.37-1.1.846.846,0,0,1,.423.508,3.547,3.547,0,0,1,.169,1.523v2.962Zm6.686,0-2.539-3.385L117,52.592h-.846l-3.216,2.962V49.884h-.677v8.379h.677V56.485l1.185-1.185,2.116,2.962Zm5.84,0V57.67a1.016,1.016,0,0,1-.677-.169c-.169-.169-.169-.508-.169-1.1V54.623a2.649,2.649,0,0,0-.339-1.608,2.59,2.59,0,0,0-1.693-.592,2.141,2.141,0,0,0-1.862.846,2.014,2.014,0,0,0-.339,1.016l.762.169a1.024,1.024,0,0,1,.254-.846,1.49,1.49,0,0,1,1.27-.508c.846,0,1.185.339,1.27.762a1.261,1.261,0,0,1,.085.508v.339l-.677.169c-.339.085-.677.169-1.1.254a3.487,3.487,0,0,0-1.777.846,1.786,1.786,0,0,0-.339.931,1.27,1.27,0,0,0,.423,1.016,1.693,1.693,0,0,0,1.354.508,2.268,2.268,0,0,0,1.693-.677,1.769,1.769,0,0,0,.339-.508.931.931,0,0,0,.254.762A2.378,2.378,0,0,0,123.008,58.263Zm-1.439-2.539a2.76,2.76,0,0,1-.169,1.016,1.972,1.972,0,0,1-1.777,1.1,1.075,1.075,0,0,1-1.016-.508,3.67,3.67,0,0,1-.085-.423,1.041,1.041,0,0,1,.339-.677,8.464,8.464,0,0,1,2.37-.762l.339-.085v.339Zm6.263.931a1.32,1.32,0,0,0-.254-.846,2.455,2.455,0,0,0-1.27-.762l-.592-.085c-.508-.085-1.185-.254-1.185-.931a.846.846,0,0,1,.169-.508q.127-.254.254-.254a1.752,1.752,0,0,1,.931-.254c.592,0,1.27.169,1.354.846l.677-.169a2.023,2.023,0,0,0-.592-.931,2.539,2.539,0,0,0-1.354-.339,1.972,1.972,0,0,0-1.523.508,1.557,1.557,0,0,0-.508,1.1,1.693,1.693,0,0,0,.254.931,2.954,2.954,0,0,0,1.862.677,2.218,2.218,0,0,1,1.1.508,1.2,1.2,0,0,1,.169.508,1.176,1.176,0,0,1-.423.846,1.473,1.473,0,0,1-1.016.254,1.693,1.693,0,0,1-1.608-1.1l-.677.254a2.54,2.54,0,0,0,.339.677,2.133,2.133,0,0,0,1.862.846,2.175,2.175,0,0,0,1.947-1.016,3.277,3.277,0,0,0,.085-.762Zm5.417,0a1.32,1.32,0,0,0-.254-.846,2.454,2.454,0,0,0-1.27-.762l-.592-.085c-.508-.085-1.185-.254-1.185-.931a.846.846,0,0,1,.169-.508q.127-.254.254-.254a1.752,1.752,0,0,1,.931-.254c.592,0,1.27.169,1.354.846l.677-.169a2.023,2.023,0,0,0-.592-.931,2.539,2.539,0,0,0-1.354-.339,1.972,1.972,0,0,0-1.523.508,1.557,1.557,0,0,0-.508,1.1,1.27,1.27,0,0,0,.339.931,2.954,2.954,0,0,0,1.862.677,2.217,2.217,0,0,1,1.1.508,1.2,1.2,0,0,1,.169.508,1.176,1.176,0,0,1-.423.846,1.473,1.473,0,0,1-1.016.254,1.693,1.693,0,0,1-1.608-1.1l-.677.254a2.54,2.54,0,0,0,.339.677,2.133,2.133,0,0,0,1.862.846,2.175,2.175,0,0,0,1.947-1.016v-.762Zm6.263.085-.677-.169a1.828,1.828,0,0,1-1.777,1.185A1.693,1.693,0,0,1,135.28,56.4a2.632,2.632,0,0,1-.085-.931h4.4V55.3a3.2,3.2,0,0,0-.762-2.031,2.361,2.361,0,0,0-1.777-.846A2.615,2.615,0,0,0,134.6,54.2a3.547,3.547,0,0,0-.169,1.185,3.081,3.081,0,0,0,1.439,2.708,2.945,2.945,0,0,0,1.27.254,2.319,2.319,0,0,0,2.031-.931,5.026,5.026,0,0,1,.339-.677Zm-.846-1.862h-3.555a1.362,1.362,0,0,1,.254-.762,1.693,1.693,0,0,1,1.608-1.016c.592,0,1.523.339,1.693,1.777Zm11,3.385V57.5h-4.994V54.285h4.232v-.762h-4.232V50.561h4.655V49.8h-5.5v8.379h5.84Zm1.947-7.025v-1.1h-.677v1.1Zm0,7.025V52.592h-.677v5.671Zm5.586-1.608a1.32,1.32,0,0,0-.254-.846,2.454,2.454,0,0,0-1.27-.762l-.592-.085c-.508-.085-1.185-.254-1.185-.931a.846.846,0,0,1,.169-.508q.127-.254.254-.254a1.752,1.752,0,0,1,.931-.254c.592,0,1.27.169,1.354.846l.677-.169a2.023,2.023,0,0,0-.592-.931,2.539,2.539,0,0,0-1.354-.339,1.972,1.972,0,0,0-1.523.508,1.557,1.557,0,0,0-.508,1.1,1.693,1.693,0,0,0,.254.931,2.954,2.954,0,0,0,1.862.677c.592.169.931.254,1.1.508a1.2,1.2,0,0,1,.169.508,1.176,1.176,0,0,1-.423.846,1.473,1.473,0,0,1-1.016.254,1.693,1.693,0,0,1-1.608-1.1l-.677.254a2.54,2.54,0,0,0,.339.677,2.133,2.133,0,0,0,1.862.846,2.175,2.175,0,0,0,1.947-1.016A3.276,3.276,0,0,0,157.2,56.655Zm6.432,1.608V57.67a1.016,1.016,0,0,1-.677-.169c-.169-.169-.169-.508-.169-1.1V54.623a2.649,2.649,0,0,0-.339-1.608,2.59,2.59,0,0,0-1.693-.592,2.141,2.141,0,0,0-1.862.846,2.015,2.015,0,0,0-.339,1.016l.762.169a1.024,1.024,0,0,1,.254-.846,1.49,1.49,0,0,1,1.27-.508c.846,0,1.185.339,1.27.762a1.262,1.262,0,0,1,.085.508v.339l-.677.169c-.339.085-.677.169-1.1.254a3.487,3.487,0,0,0-1.777.846,1.786,1.786,0,0,0-.339.931,1.27,1.27,0,0,0,.423,1.016,1.693,1.693,0,0,0,1.354.508,2.268,2.268,0,0,0,1.693-.677.728.728,0,0,0,.254-.508.931.931,0,0,0,.254.762,2.734,2.734,0,0,0,1.354.254Zm-1.523-2.539a2.759,2.759,0,0,1-.169,1.016,1.972,1.972,0,0,1-1.777,1.1,1.075,1.075,0,0,1-1.016-.508,3.661,3.661,0,0,1-.085-.423,1.041,1.041,0,0,1,.339-.677,8.464,8.464,0,0,1,2.37-.762l.339-.085v.339Zm6.94,1.27-.677-.169a1.735,1.735,0,0,1-2.285.762,2.108,2.108,0,0,1-.592-.423,2.988,2.988,0,0,1-.508-1.777,2.59,2.59,0,0,1,.762-1.947,1.566,1.566,0,0,1,1.185-.423,1.6,1.6,0,0,1,1.523.931l.677-.169a2.277,2.277,0,0,0-.508-.762,2.209,2.209,0,0,0-1.608-.592,2.539,2.539,0,0,0-2.539,1.862,2.877,2.877,0,0,0-.169,1.185,3.055,3.055,0,0,0,.846,2.285,2.725,2.725,0,0,0,1.693.677,2.209,2.209,0,0,0,1.608-.592A3.039,3.039,0,0,0,169.05,56.993Zm6.009,1.27-2.539-3.385,2.37-2.285h-.846l-3.216,2.962V49.884h-.677v8.379h.677V56.485l1.185-1.185,2.116,2.962Zm3.385-.169v-.677a1.524,1.524,0,0,1-.762.339c-.508,0-.508-.508-.423-.846V53.184h1.27v-.592h-1.27v-2.37h-.677v2.37H175.4v.592h1.185v3.555a4.825,4.825,0,0,0,.085,1.1.846.846,0,0,0,.762.508h.169a1.693,1.693,0,0,0,.846-.254Zm5.925.169V57.67a1.016,1.016,0,0,1-.677-.169c-.169-.169-.169-.508-.169-1.1V54.623a2.649,2.649,0,0,0-.339-1.608,2.59,2.59,0,0,0-1.693-.592,2.141,2.141,0,0,0-1.862.846,2.014,2.014,0,0,0-.339,1.016l.762.169a1.024,1.024,0,0,1,.254-.846,1.49,1.49,0,0,1,1.27-.508c.846,0,1.185.339,1.27.762a1.261,1.261,0,0,1,.085.508v.339l-.677.169c-.339.085-.677.169-1.1.254a3.487,3.487,0,0,0-1.777.846,1.786,1.786,0,0,0-.339.931,1.27,1.27,0,0,0,.423,1.016,1.693,1.693,0,0,0,1.354.508,2.268,2.268,0,0,0,1.693-.677.728.728,0,0,0,.254-.508.931.931,0,0,0,.254.762,2.734,2.734,0,0,0,1.354.254Zm-1.523-2.539a2.76,2.76,0,0,1-.169,1.016,1.972,1.972,0,0,1-1.777,1.1,1.075,1.075,0,0,1-1.016-.508,3.667,3.667,0,0,1-.085-.423,1.041,1.041,0,0,1,.339-.677,8.464,8.464,0,0,1,2.37-.762l.339-.085v.339Zm3.132,2.539V49.884H185.3v8.379Z" transform="translate(-9.679 -7.65)" fill="#fff"/>
  </g>
</svg>
