<svg id="Support" xmlns="http://www.w3.org/2000/svg" width="216.265" height="51.661" viewBox="0 0 216.265 51.661">
  <path id="Pfad_1551" data-name="Pfad 1551" d="M1.472,1.789,0,9.153H9.652l-5.377,25.5h8.548L18.2,9.153h9.651l1.472-7.364Z" transform="translate(0 -1.099)" fill="#0093d0" fill-rule="evenodd"/>
  <path id="Pfad_1552" data-name="Pfad 1552" d="M33.389,1.789l-6.91,32.865h8.548L40.4,9.153h9.651l1.471-7.364Z" transform="translate(-1.548 -1.099)" fill="#0093d0" fill-rule="evenodd"/>
  <g id="Gruppe_1100" data-name="Gruppe 1100" transform="translate(4.189 0)">
    <path id="Pfad_1553" data-name="Pfad 1553" d="M74.706,12.594c.369-3.038-1.286-5.478-5.285-5.478-6.481,0-8.916,7.5-8.916,12.7,0,4.234,1.24,7.456,6.066,7.456a6.95,6.95,0,0,0,6.94-5.8h8.548C80.222,29.9,74.937,34.318,65.378,34.318c-5.194,0-13.419-2.623-13.419-14.82,0-10.585,6.48-19.422,17.6-19.422,8.227,0,13.787,3.866,13.7,12.519ZM95.76,28.566c4.457,0,6.021-4.972,6.021-8.654,0-2.99-1.012-5.108-3.952-5.108-4.231,0-5.885,5.616-5.885,8.836,0,2.717,1.059,4.926,3.816,4.926M98.335,9.05c6.523,0,11.26,3.682,11.26,10.539,0,8.516-5.378,14.728-14.018,14.728-6.619,0-11.444-3.36-11.444-10.4,0-8.467,5.56-14.865,14.2-14.865m16.782.69h7.812l-.642,2.9h.092a10.2,10.2,0,0,1,8.226-3.588c4.273,0,6.847,2.622,6.847,6.72a27.418,27.418,0,0,1-.829,5.152L133.776,33.63h-7.812l2.71-12.659a15.791,15.791,0,0,0,.46-3.039,2.669,2.669,0,0,0-2.848-2.9c-4.826,0-5.378,4.556-6.206,8.47L117.967,33.63h-7.813Zm38.189,0h4.919L157.169,14.8H152.2l-1.882,9.02a14.188,14.188,0,0,0-.414,2.853c0,1.153,1.1,1.244,2.434,1.244.828,0,1.61-.091,2.437-.137l-1.2,5.847c-1.564.09-3.032.274-4.55.274-3.63,0-7.4-.507-7.4-4.143a31.289,31.289,0,0,1,.919-6.305l1.839-8.652H140.44l1.055-5.064h3.955l1.515-7.181h7.813Zm9.827,0h7.584l-.874,3.913h.092a8.623,8.623,0,0,1,7.49-4.6,5.839,5.839,0,0,1,2.62.414l-1.517,6.9a12.881,12.881,0,0,0-3.538-.46c-4.273,0-5.928,2.715-6.709,6.764l-2.3,10.957h-7.813Zm27.115,18.826c4.458,0,6.021-4.972,6.021-8.654,0-2.99-1.012-5.108-3.952-5.108-4.229,0-5.884,5.616-5.884,8.836,0,2.717,1.059,4.926,3.815,4.926M192.824,9.05c6.523,0,11.258,3.682,11.258,10.539,0,8.516-5.376,14.728-14.016,14.728-6.619,0-11.443-3.36-11.443-10.4,0-8.467,5.559-14.865,14.2-14.865" transform="translate(-7.226 -0.075)" fill="#0093d0" fill-rule="evenodd"/>
    <path id="Pfad_1554" data-name="Pfad 1554" d="M220.97.808h7.812l-6.848,32.865h-7.813Z" transform="translate(-16.706 -0.118)" fill="#0093d0" fill-rule="evenodd"/>
    <path id="Pfad_1555" data-name="Pfad 1555" d="M4.449,40.813H6.176V46.4H13.01V40.813h1.726v13H13.01V47.857H6.176v5.952H4.449Z" transform="translate(-4.449 -2.457)" fill="#e3000f" fill-rule="evenodd"/>
    <path id="Pfad_1556" data-name="Pfad 1556" d="M23.661,48.494v5.314H21.935V48.494l-5.017-7.681h2.054L22.861,47l3.8-6.188h1.962Z" transform="translate(-5.178 -2.457)" fill="#e3000f" fill-rule="evenodd"/>
    <path id="Pfad_1557" data-name="Pfad 1557" d="M32.62,52.333h2.872c1.181,0,4.362-.327,4.362-5.114,0-3.094-1.145-4.969-4.326-4.969H32.62ZM30.893,40.794h4.452c4,0,6.234,2,6.234,6.188,0,4.35-1.908,6.808-6.234,6.808H30.893Zm15.03,7.626h4.4l-2.164-6.061h-.036Zm1.29-7.625h1.908l5.071,12.995H52.284l-1.417-3.913H45.378l-1.453,3.913H42.143Zm17.375,3.913a3.419,3.419,0,0,0-3.635-2.767c-3.09,0-4.4,2.548-4.4,5.26,0,2.967,1.307,5.443,4.416,5.443,2.272,0,3.58-1.6,3.744-3.751h1.726c-.327,3.24-2.344,5.2-5.616,5.2-4.035,0-6-2.985-6-6.77,0-3.767,2.145-6.843,6.143-6.843,2.708,0,4.943,1.456,5.343,4.223Z" transform="translate(-5.995 -2.437)" fill="#e3000f" fill-rule="evenodd"/>
    <path id="Pfad_1558" data-name="Pfad 1558" d="M76.369,53.809H78.1v-13H76.369Z" transform="translate(-8.653 -2.457)" fill="#e3000f" fill-rule="evenodd"/>
    <path id="Pfad_1559" data-name="Pfad 1559" d="M81.272,40.813h1.836l6.833,10.539h.036V40.813h1.636v13H89.722l-6.778-10.43h-.037v10.43H81.272Z" transform="translate(-8.94 -2.457)" fill="#e3000f" fill-rule="evenodd"/>
    <path id="Pfad_1560" data-name="Pfad 1560" d="M98.085,42.269H93.76V40.813h10.379v1.456H99.812v11.54H98.085Z" transform="translate(-9.67 -2.457)" fill="#e3000f" fill-rule="evenodd"/>
    <path id="Pfad_1561" data-name="Pfad 1561" d="M106.306,40.813h8.961v1.456h-7.234V46.4h6.742v1.457h-6.742v4.5h7.288v1.457h-9.015Z" transform="translate(-10.403 -2.457)" fill="#e3000f" fill-rule="evenodd"/>
    <path id="Pfad_1562" data-name="Pfad 1562" d="M123.425,46.8c1.618,0,3-.419,3-2.311a2.056,2.056,0,0,0-2.31-2.221h-4.288V46.8ZM118.1,40.813h6.106c2.435,0,3.944,1.328,3.944,3.4a3.117,3.117,0,0,1-2.254,3.295v.036c1.509.291,1.818,1.4,1.945,2.675.109,1.275.036,2.694.764,3.586h-1.927c-.491-.527-.218-1.93-.472-3.2-.183-1.274-.491-2.348-2.164-2.348h-4.216v5.551H118.1Z" transform="translate(-11.093 -2.457)" fill="#e3000f" fill-rule="evenodd"/>
    <path id="Pfad_1563" data-name="Pfad 1563" d="M131.3,40.813h1.835l6.834,10.539h.036V40.813h1.635v13h-1.89l-6.779-10.43h-.037v10.43H131.3Z" transform="translate(-11.865 -2.457)" fill="#e3000f" fill-rule="evenodd"/>
    <path id="Pfad_1564" data-name="Pfad 1564" d="M147.4,48.439h4.4l-2.163-6.061H149.6Zm1.29-7.625H150.6l5.07,12.995h-1.908L152.341,49.9h-5.488L145.4,53.808h-1.781Z" transform="translate(-12.584 -2.457)" fill="#e3000f" fill-rule="evenodd"/>
    <path id="Pfad_1565" data-name="Pfad 1565" d="M158.849,42.269h-4.325V40.813H164.9v1.456h-4.326v11.54h-1.727Z" transform="translate(-13.222 -2.457)" fill="#e3000f" fill-rule="evenodd"/>
    <path id="Pfad_1566" data-name="Pfad 1566" d="M167.148,53.809h1.726v-13h-1.726Z" transform="translate(-13.96 -2.457)" fill="#e3000f" fill-rule="evenodd"/>
    <path id="Pfad_1567" data-name="Pfad 1567" d="M177.513,52.643c3.163,0,4.489-2.73,4.489-5.351s-1.326-5.351-4.489-5.351-4.489,2.73-4.489,5.351,1.326,5.351,4.489,5.351m0-12.159c4.125,0,6.216,3.276,6.216,6.808s-2.09,6.807-6.216,6.807-6.216-3.276-6.216-6.807,2.09-6.808,6.216-6.808" transform="translate(-14.202 -2.437)" fill="#e3000f" fill-rule="evenodd"/>
    <path id="Pfad_1568" data-name="Pfad 1568" d="M186.72,40.813h1.836l6.834,10.539h.036V40.813h1.635v13h-1.889l-6.779-10.43h-.037v10.43H186.72Z" transform="translate(-15.104 -2.457)" fill="#e3000f" fill-rule="evenodd"/>
    <path id="Pfad_1569" data-name="Pfad 1569" d="M202.815,48.439h4.4l-2.163-6.061h-.037Zm1.29-7.625h1.908l5.07,12.995h-1.908L207.758,49.9H202.27l-1.454,3.913h-1.781Z" transform="translate(-15.824 -2.457)" fill="#e3000f" fill-rule="evenodd"/>
    <path id="Pfad_1570" data-name="Pfad 1570" d="M213.183,40.813h1.727v11.54h6.869v1.457h-8.6Z" transform="translate(-16.651 -2.457)" fill="#e3000f" fill-rule="evenodd"/>
  </g>
</svg>
