<svg xmlns="http://www.w3.org/2000/svg" width="289.162" height="75.323" viewBox="0 0 289.162 75.323">
  <g id="Logo" transform="translate(-31.316 -31.617)">
    <g id="Gruppe_1068" data-name="Gruppe 1068" transform="translate(32.1 31.617)">
      <g id="Gruppe_1067" data-name="Gruppe 1067">
        <path id="Pfad_1379" data-name="Pfad 1379" d="M38.485,66.084H32.554V32.476h5.931Z" transform="translate(-32.554 -31.932)" fill="#fff"/>
        <path id="Pfad_1380" data-name="Pfad 1380" d="M69.928,46.194c3.064,4.547,4.547,6.969,6.425,10.181H76.4c-.1-1.977-.3-8.352-.3-12.554V32.554h5.881V66.162H76.452l-9.538-14.58c-3.361-5.09-4.2-6.721-5.882-9.588h-.049c.049,3.558.2,8.007.2,12.949V66.162H55.3V32.554h5.536Z" transform="translate(-40.888 -31.96)" fill="#fff"/>
        <path id="Pfad_1381" data-name="Pfad 1381" d="M125.067,46.194c3.063,4.547,4.546,6.969,6.424,10.181h.049c-.1-1.977-.3-8.352-.3-12.554V32.554h5.881V66.162H131.59l-9.538-14.58c-3.361-5.09-4.2-6.721-5.881-9.588h-.049c.049,3.558.2,8.007.2,12.949V66.162h-5.881V32.554h5.535Z" transform="translate(-61.09 -31.96)" fill="#fff"/>
        <path id="Pfad_1382" data-name="Pfad 1382" d="M178.242,31.617c9.785,0,15.914,7.117,15.914,17.4,0,10.231-5.683,17.4-15.914,17.4-10.181,0-15.914-7.165-15.914-17.4C162.328,38.734,168.457,31.617,178.242,31.617Zm0,29.407c5.98,0,9.439-4.7,9.439-12.01s-3.558-12.108-9.439-12.108S168.8,41.7,168.8,49.014,172.262,61.024,178.242,61.024Z" transform="translate(-80.102 -31.617)" fill="#fff"/>
        <path id="Pfad_1383" data-name="Pfad 1383" d="M228.363,52.076c.889,2.916,1.284,4.35,2.026,7.364h.1c.741-2.817,1.285-4.6,2.224-7.611l5.981-19.275h6.128L233.948,66.162h-7.266L216.254,32.554h6.227Z" transform="translate(-99.86 -31.96)" fill="#fff"/>
        <path id="Pfad_1384" data-name="Pfad 1384" d="M265.274,66.162h-5.93l11.713-33.608h6.722l11.615,33.608h-6.129L280.645,58.3h-12.7ZM276.691,45.6c-.741-2.521-1.68-5.486-2.372-7.957h-.049c-.692,2.471-1.681,5.684-2.472,8.353l-2.223,7.265h9.39Z" transform="translate(-115.648 -31.96)" fill="#fff"/>
        <path id="Pfad_1385" data-name="Pfad 1385" d="M320.7,32.554V60.725h14.432v5.436H314.723V32.554Z" transform="translate(-135.939 -31.96)" fill="#fff"/>
        <path id="Pfad_1386" data-name="Pfad 1386" d="M361.964,32.554V60.725H376.4v5.436H355.984V32.554Z" transform="translate(-151.057 -31.96)" fill="#fff"/>
        <path id="Pfad_1387" data-name="Pfad 1387" d="M401.233,37.842v8.3H417.3v5.288H401.233v9.439h18.929v5.289H395.4V32.554h23.526v5.288Z" transform="translate(-165.499 -31.96)" fill="#fff"/>
        <path id="Pfad_1388" data-name="Pfad 1388" d="M456.842,66.162h-5.931V52.422L438.7,32.554h6.87l8.6,14.382,8.748-14.382h6.821l-12.9,19.868Z" transform="translate(-181.364 -31.96)" fill="#fff"/>
      </g>
    </g>
    <g id="Gruppe_1069" data-name="Gruppe 1069" transform="translate(31.316 79.871)">
      <path id="Pfad_1389" data-name="Pfad 1389" d="M44.759,112.214a6.648,6.648,0,0,0-5.5-2.707c-2.8,0-4.867,1.46-4.867,3.681,0,2.28,1.429,3.1,4.167,3.71l2.829.639c3.62.791,5.749,2.1,5.749,5.5,0,3.529-2.889,6.145-7.634,6.145-4.592,0-7.117-2.4-8.182-4.715l1.7-1.125a6.62,6.62,0,0,0,6.509,4.136c3.62,0,5.566-1.734,5.566-4.319,0-2.251-1.521-3.193-4.471-3.833l-2.585-.578c-3.1-.7-5.657-1.734-5.657-5.414,0-3.285,2.8-5.566,6.965-5.566a8.161,8.161,0,0,1,6.935,3.133Z" transform="translate(-31.316 -107.774)" fill="#fff"/>
      <path id="Pfad_1390" data-name="Pfad 1390" d="M66.259,115.065h1.794v8.272c0,1.825.214,3.133.913,3.954a3.263,3.263,0,0,0,2.585.943c2.981,0,4.106-2.433,4.106-4.562v-8.608h1.794v14.477H75.688V127.17h-.03a5.192,5.192,0,0,1-8.121,1.339c-.821-.913-1.278-2.16-1.278-4.381Zm1.916-5.324h1.886v2.768H68.175Zm5.688,0h1.886v2.768H73.863Z" transform="translate(-44.119 -108.495)" fill="#fff"/>
      <path id="Pfad_1391" data-name="Pfad 1391" d="M94.627,121.854c0-4.836,2.525-7.634,6.114-7.634a5.017,5.017,0,0,1,4.715,2.92v-8.79h1.794v20.682h-1.794v-2.585a4.943,4.943,0,0,1-4.806,2.951C97.091,129.4,94.627,126.721,94.627,121.854Zm6.448-6.083c-2.8,0-4.562,2.1-4.562,6.022,0,3.862,1.642,6.052,4.5,6.052,2.768,0,4.5-2.129,4.5-6.022C105.516,117.87,103.782,115.771,101.075,115.771Z" transform="translate(-54.513 -107.985)" fill="#fff"/>
      <path id="Pfad_1392" data-name="Pfad 1392" d="M123.955,114.784h2.92v-5.414l1.794-.4v5.81h3.467v1.4H128.67v9.763c0,1.612.426,2.038,1.642,2.038a4.219,4.219,0,0,0,1.825-.456v1.643a6.1,6.1,0,0,1-2.251.456c-1.855,0-3.011-.7-3.011-3.224V116.183h-2.92Z" transform="translate(-65.258 -108.214)" fill="#fff"/>
      <path id="Pfad_1393" data-name="Pfad 1393" d="M148.693,111.33H146.9v-2.98h1.794Zm0,17.7H146.9V114.555h1.794Z" transform="translate(-73.665 -107.985)" fill="#fff"/>
      <path id="Pfad_1394" data-name="Pfad 1394" d="M169.166,119.452a5.6,5.6,0,0,0-1-.091c-2.524,0-4.35,1.946-4.35,4.866v8.182h-1.794V117.932h1.764v2.858h.03a4.608,4.608,0,0,1,4.38-3.223,5.27,5.27,0,0,1,.973.091Z" transform="translate(-79.204 -111.362)" fill="#fff"/>
      <path id="Pfad_1395" data-name="Pfad 1395" d="M186.925,117.614c4.076,0,6.57,3.042,6.57,7.634,0,4.563-2.464,7.544-6.57,7.544s-6.57-2.981-6.57-7.544C180.355,120.656,182.849,117.614,186.925,117.614Zm0,13.657c2.8,0,4.684-2.311,4.684-6.053,0-3.8-1.825-6.083-4.684-6.083s-4.684,2.311-4.684,6.083S184.126,131.271,186.925,131.271Z" transform="translate(-85.923 -111.379)" fill="#fff"/>
      <path id="Pfad_1396" data-name="Pfad 1396" d="M213.588,129.032h-1.794V108.35h1.794Z" transform="translate(-97.442 -107.985)" fill="#fff"/>
      <path id="Pfad_1397" data-name="Pfad 1397" d="M240.628,129.032h-2.1l8.03-20.682h1.947l7.969,20.682h-2.129L252,122.8H242.91Zm7.756-15.846c-.486-1.248-.7-1.795-.912-2.525h-.03c-.243.73-.365,1.125-.943,2.555l-2.951,7.817H251.3Z" transform="translate(-107.238 -107.985)" fill="#fff"/>
      <path id="Pfad_1398" data-name="Pfad 1398" d="M277.668,129.032h-1.794V108.35h1.794Z" transform="translate(-120.92 -107.985)" fill="#fff"/>
      <path id="Pfad_1399" data-name="Pfad 1399" d="M288.114,114.784h2.92v-5.414l1.794-.4v5.81H296.3v1.4h-3.468v9.763c0,1.612.426,2.038,1.642,2.038a4.222,4.222,0,0,0,1.825-.456v1.643a6.1,6.1,0,0,1-2.251.456c-1.855,0-3.011-.7-3.011-3.224V116.183h-2.92Z" transform="translate(-125.405 -108.214)" fill="#fff"/>
      <path id="Pfad_1400" data-name="Pfad 1400" d="M315.66,117.614c4.075,0,6.57,3.042,6.57,7.634,0,4.563-2.464,7.544-6.57,7.544s-6.57-2.981-6.57-7.544C309.09,120.656,311.584,117.614,315.66,117.614Zm0,13.657c2.8,0,4.684-2.311,4.684-6.053,0-3.8-1.825-6.083-4.684-6.083s-4.684,2.311-4.684,6.083S312.861,131.271,315.66,131.271Z" transform="translate(-133.091 -111.379)" fill="#fff"/>
      <path id="Pfad_1401" data-name="Pfad 1401" d="M354.243,129.032h-2.1l8.03-20.682h1.946l7.969,20.682h-2.13l-2.342-6.235h-9.095ZM362,113.186c-.487-1.248-.7-1.795-.912-2.525h-.03c-.243.73-.365,1.125-.943,2.555l-2.95,7.817h7.756Z" transform="translate(-148.865 -107.985)" fill="#fff"/>
      <path id="Pfad_1402" data-name="Pfad 1402" d="M387.9,121.854c0-4.836,2.524-7.634,6.113-7.634a5.018,5.018,0,0,1,4.715,2.92v-8.79h1.794v20.682h-1.794v-2.585a4.943,4.943,0,0,1-4.806,2.951C390.369,129.4,387.9,126.721,387.9,121.854Zm6.448-6.083c-2.8,0-4.562,2.1-4.562,6.022,0,3.862,1.642,6.052,4.5,6.052,2.768,0,4.5-2.129,4.5-6.022C398.794,117.87,397.06,115.771,394.353,115.771Z" transform="translate(-161.968 -107.985)" fill="#fff"/>
      <path id="Pfad_1403" data-name="Pfad 1403" d="M421.906,111.33h-1.794v-2.98h1.794Zm0,17.7h-1.794V114.555h1.794Z" transform="translate(-173.768 -107.985)" fill="#fff"/>
      <path id="Pfad_1404" data-name="Pfad 1404" d="M446.367,131.849c0,4.532-1.946,6.6-6.235,6.6-4.106,0-5.688-2.068-5.84-4.775l1.734-.486c.183,2.1,1.156,3.741,4.106,3.741,3.954,0,4.441-2.585,4.441-5.718v-1.49a4.878,4.878,0,0,1-4.745,2.859c-3.68,0-6.083-2.768-6.083-7.452s2.524-7.513,6.114-7.513a5.025,5.025,0,0,1,4.715,2.707v-2.372h1.794Zm-6.174-12.683c-2.8,0-4.563,2.067-4.563,5.9,0,3.772,1.642,5.9,4.5,5.9,2.768,0,4.5-2.1,4.5-5.87C444.633,121.233,442.9,119.166,440.192,119.166Z" transform="translate(-178.763 -111.379)" fill="#fff"/>
      <path id="Pfad_1405" data-name="Pfad 1405" d="M477.356,128.868a6.727,6.727,0,0,1-6.3,3.924c-4.075,0-6.691-2.768-6.691-7.7,0-4.41,2.647-7.482,6.539-7.482,4.2,0,6.327,3.224,6.327,7.513v.244h-11.01v.213c0,3.8,2.19,5.657,4.9,5.657a5.279,5.279,0,0,0,4.867-3.254Zm-11.072-4.958h9a4.513,4.513,0,0,0-4.38-4.744C468.261,119.166,466.527,121.02,466.284,123.91Z" transform="translate(-189.983 -111.379)" fill="#fff"/>
    </g>
  </g>
</svg>
