<svg id="Support" xmlns="http://www.w3.org/2000/svg" width="262.958" height="48.852" viewBox="0 0 262.958 48.852">
  <g id="Layer_1" data-name="Layer 1">
    <path id="Pfad_1410" data-name="Pfad 1410" d="M23.2,18.311,25.47,12.5h.817l2.361,5.811H27.74L27.014,16.5H24.562l-.636,1.816Zm1.725-2.452h2l-.636-1.634c-.182-.454-.363-.908-.454-1.18l-.272,1.09Z" transform="translate(-2.134 -1.15)"/>
    <path id="Pfad_1411" data-name="Pfad 1411" d="M33.921,12.4h.817v3.36a4.922,4.922,0,0,1-.182,1.362,1.553,1.553,0,0,1-.726.817,3.078,3.078,0,0,1-2.724.091,1.289,1.289,0,0,1-.726-.817A3.323,3.323,0,0,1,30.2,15.76V12.4h.817v3.36a2.606,2.606,0,0,0,.182,1.09,1.335,1.335,0,0,0,.454.545,2.17,2.17,0,0,0,.817.182c.545,0,1-.091,1.18-.363a2.57,2.57,0,0,0,.363-1.453V12.4Z" transform="translate(-2.777 -1.141)"/>
    <path id="Pfad_1412" data-name="Pfad 1412" d="M38.107,18.3V13.126H36.2V12.4h4.631v.726H38.924V18.3Z" transform="translate(-3.33 -1.141)"/>
    <path id="Pfad_1413" data-name="Pfad 1413" d="M41.8,15.387a3.024,3.024,0,0,1,.817-2.27,2.942,2.942,0,0,1,3.45-.454,2.887,2.887,0,0,1,1,1.09,4.277,4.277,0,0,1,.363,1.544,3.323,3.323,0,0,1-.363,1.634,2.343,2.343,0,0,1-1,1.09,3.087,3.087,0,0,1-2.906,0,2.887,2.887,0,0,1-1-1.09,2.987,2.987,0,0,1-.363-1.544Zm.817,0a2.216,2.216,0,0,0,.545,1.634,1.979,1.979,0,0,0,1.453.636,1.816,1.816,0,0,0,1.453-.636,2.615,2.615,0,0,0,.545-1.725,2.9,2.9,0,0,0-.272-1.271,1.6,1.6,0,0,0-.726-.817,1.816,1.816,0,0,0-1-.272,2.225,2.225,0,0,0-1.453.545,2.978,2.978,0,0,0-.545,1.907Z" transform="translate(-3.845 -1.132)"/>
    <path id="Pfad_1414" data-name="Pfad 1414" d="M49.2,18.311V12.5h.817L53.1,17.131V12.5h.726v5.811h-.817L49.926,13.68v4.631Z" transform="translate(-4.526 -1.15)"/>
    <path id="Pfad_1415" data-name="Pfad 1415" d="M55.6,15.387a3.024,3.024,0,0,1,.817-2.27,2.942,2.942,0,0,1,3.45-.454,2.888,2.888,0,0,1,1,1.09,4.277,4.277,0,0,1,.363,1.544,3.323,3.323,0,0,1-.363,1.634,2.343,2.343,0,0,1-1,1.09,3.087,3.087,0,0,1-2.906,0,2.887,2.887,0,0,1-1-1.09,2.987,2.987,0,0,1-.363-1.544Zm.726,0a2.216,2.216,0,0,0,.545,1.634,1.979,1.979,0,0,0,1.453.636,1.816,1.816,0,0,0,1.453-.636,2.615,2.615,0,0,0,.545-1.725,2.9,2.9,0,0,0-.272-1.271,1.6,1.6,0,0,0-.726-.817,1.816,1.816,0,0,0-1-.272,2.225,2.225,0,0,0-1.453.545,3.632,3.632,0,0,0-.545,1.907Z" transform="translate(-5.114 -1.132)"/>
    <path id="Pfad_1416" data-name="Pfad 1416" d="M62.9,18.311V12.5h1.18l1.362,4.177c.091.363.182.636.272.908a5.637,5.637,0,0,0,.272-.908l1.362-4.086h1V18.4h-.726V13.5L65.9,18.4H65.17l-1.725-4.994V18.4H62.9Z" transform="translate(-5.787 -1.15)"/>
    <path id="Pfad_1417" data-name="Pfad 1417" d="M70.5,18.311V12.5h4.268v.726h-3.45v1.816h3.269v.726H71.317v2h3.632v.726H70.5Z" transform="translate(-6.486 -1.15)"/>
    <path id="Pfad_1418" data-name="Pfad 1418" d="M79.2,18.31V12.5h2.179a2.533,2.533,0,0,1,.908.091,6.256,6.256,0,0,1,.726.272,1.335,1.335,0,0,1,.454.545A1.979,1.979,0,0,1,83.2,15.5a2.179,2.179,0,0,1-1.725.545H79.926V18.4H79.2Zm.817-3.087h1.544a1.743,1.743,0,0,0,1.09-.272c.272-.182.272-.454.272-.817a1.317,1.317,0,0,0-.182-.636.908.908,0,0,0-.454-.363,4.885,4.885,0,0,0-.726-.091H80.108v2.179Z" transform="translate(-7.286 -1.149)"/>
    <path id="Pfad_1419" data-name="Pfad 1419" d="M85.4,18.311V12.5h2.633a3.559,3.559,0,0,1,1.18.182,1.217,1.217,0,0,1,.636.545,1.534,1.534,0,0,1,.272.908,1.589,1.589,0,0,1-.363,1.09,1.816,1.816,0,0,1-1.271.545,1.989,1.989,0,0,1,.454.272,3.187,3.187,0,0,1,.636.817l1,1.634h-1l-.817-1.18c-.182-.363-.454-.636-.545-.817s-.272-.272-.363-.363-.272-.091-.363-.182H86.126v2.633H85.4Zm.726-3.269h1.634a2.016,2.016,0,0,0,.817-.091.908.908,0,0,0,.454-.363,1.29,1.29,0,0,0,.182-.545,1.035,1.035,0,0,0-.272-.726,1.353,1.353,0,0,0-.908-.272H86.217v2Z" transform="translate(-7.857 -1.15)"/>
    <path id="Pfad_1420" data-name="Pfad 1420" d="M91.7,15.387a3.024,3.024,0,0,1,.817-2.27,2.942,2.942,0,0,1,3.45-.454,2.887,2.887,0,0,1,1,1.09,4.277,4.277,0,0,1,.363,1.544,3.323,3.323,0,0,1-.363,1.634,2.343,2.343,0,0,1-1,1.09,3.087,3.087,0,0,1-2.906,0,2.888,2.888,0,0,1-1-1.09A2.987,2.987,0,0,1,91.7,15.387Zm.817,0a2.215,2.215,0,0,0,.545,1.634,1.979,1.979,0,0,0,1.453.636,1.816,1.816,0,0,0,1.453-.636,2.615,2.615,0,0,0,.545-1.725,2.9,2.9,0,0,0-.272-1.271,1.6,1.6,0,0,0-.726-.817,1.816,1.816,0,0,0-1-.272,2.225,2.225,0,0,0-1.453.545A2.978,2.978,0,0,0,92.517,15.387Z" transform="translate(-8.435 -1.132)"/>
    <path id="Pfad_1421" data-name="Pfad 1421" d="M100.67,18.311,98.4,12.5h.817l1.544,4.268c.091.363.182.636.272,1,.091-.363.182-.636.272-1l1.544-4.268h.817l-2.27,5.811Z" transform="translate(-9.053 -1.15)"/>
    <path id="Pfad_1422" data-name="Pfad 1422" d="M105.3,18.311V12.5h.817v5.811Z" transform="translate(-9.687 -1.15)"/>
    <path id="Pfad_1423" data-name="Pfad 1423" d="M107.8,18.311V12.5h.817l3.087,4.631V12.5h.726v5.811h-.817l-3.087-4.631v4.631Z" transform="translate(-9.917 -1.15)"/>
    <path id="Pfad_1424" data-name="Pfad 1424" d="M113.9,18.3v-.726l3-3.723c.182-.272.454-.454.636-.726h-3.269V12.4h4.177v.726l-3.269,4.086-.363.454h3.723v.726H113.9Z" transform="translate(-10.478 -1.141)"/>
    <path id="Pfad_1425" data-name="Pfad 1425" d="M34.1,29.111V23.3h2.179a3.387,3.387,0,0,1,1.09.182,1.217,1.217,0,0,1,.636.545,1.462,1.462,0,0,1,.272.817,2.134,2.134,0,0,1-.182.726c-.091.272-.363.363-.636.545a1.326,1.326,0,0,1,.817.545,1.535,1.535,0,0,1,.272.908,1.707,1.707,0,0,1-.182.726.908.908,0,0,1-.454.545,4.431,4.431,0,0,1-.636.272,2.8,2.8,0,0,1-.908.091H34.1Zm.726-3.45H36.1a1.562,1.562,0,0,0,.726-.091,1.989,1.989,0,0,0,.454-.272.772.772,0,0,0,.182-.545,1.289,1.289,0,0,0-.182-.545c-.091-.182-.182-.272-.363-.272s-.454-.091-.908-.091h-1.18Zm0,2.724h2a.69.69,0,0,0,.454-.182,1.253,1.253,0,0,0,.272-.363.817.817,0,0,0,.091-.454,1.289,1.289,0,0,0-.182-.545.908.908,0,0,0-.454-.363,2.016,2.016,0,0,0-.817-.091H34.826v2Z" transform="translate(-3.137 -2.144)"/>
    <path id="Pfad_1426" data-name="Pfad 1426" d="M40,26.187a3.024,3.024,0,0,1,.817-2.27,2.942,2.942,0,0,1,3.45-.454,2.887,2.887,0,0,1,1,1.09,4.277,4.277,0,0,1,.363,1.544,3.323,3.323,0,0,1-.363,1.634,2.343,2.343,0,0,1-1,1.09,3.087,3.087,0,0,1-2.906,0,2.887,2.887,0,0,1-1-1.09A2.987,2.987,0,0,1,40,26.187Zm.726,0a2.216,2.216,0,0,0,.545,1.634,1.979,1.979,0,0,0,1.453.636,1.816,1.816,0,0,0,1.453-.636,2.615,2.615,0,0,0,.545-1.725,2.9,2.9,0,0,0-.272-1.271,1.6,1.6,0,0,0-.726-.817,1.816,1.816,0,0,0-1-.272,2.225,2.225,0,0,0-1.453.545A3.632,3.632,0,0,0,40.726,26.187Z" transform="translate(-3.679 -2.125)"/>
    <path id="Pfad_1427" data-name="Pfad 1427" d="M46.8,29.1v-.726l3-3.723c.182-.272.454-.454.636-.726H47.163V23.2H51.34v.726l-3.269,4.086-.363.454h3.723v.726H46.8Z" transform="translate(-4.305 -2.134)"/>
    <path id="Pfad_1428" data-name="Pfad 1428" d="M52.9,29.111V23.3h4.268v.726h-3.45v1.816h3.269v.726H53.717v2h3.632v.726H52.9Z" transform="translate(-4.867 -2.144)"/>
    <path id="Pfad_1429" data-name="Pfad 1429" d="M59,29.111V23.3h.817L62.9,27.931V23.3h.726v5.811h-.817L59.726,24.48v4.631Z" transform="translate(-5.428 -2.144)"/>
    <path id="Pfad_1430" data-name="Pfad 1430" d="M67.8,27.626V26.9h2.179v.726Z" transform="translate(-6.237 -2.475)"/>
    <path id="Pfad_1431" data-name="Pfad 1431" d="M73.7,27.2l.726-.091a1.035,1.035,0,0,0,.272.726,1.335,1.335,0,0,0,.545.454,2.724,2.724,0,0,0,.908.182,2.515,2.515,0,0,0,.817-.091,1.153,1.153,0,0,0,.545-.363,1.289,1.289,0,0,0,.182-.545.69.69,0,0,0-.182-.454,1.4,1.4,0,0,0-.545-.363,4.821,4.821,0,0,0-1-.272,4.976,4.976,0,0,1-1.09-.363,3.949,3.949,0,0,1-.636-.545.981.981,0,0,1-.182-.726,1.462,1.462,0,0,1,.272-.817,1.416,1.416,0,0,1,.726-.545,3.387,3.387,0,0,1,1.09-.182,4.6,4.6,0,0,1,1.18.182,1.68,1.68,0,0,1,.726.636,1.534,1.534,0,0,1,.272.908l-.726.091a1.153,1.153,0,0,0-.363-.817,1.634,1.634,0,0,0-1-.272,1.462,1.462,0,0,0-1,.272.908.908,0,0,0-.363.636.781.781,0,0,0,.272.545,6.356,6.356,0,0,0,1.18.454c.636.182,1.09.272,1.271.363.363.182.636.363.726.636a1.462,1.462,0,0,1,.272.817,1.753,1.753,0,0,1-.272.908,2.451,2.451,0,0,1-.726.636,2.415,2.415,0,0,1-1.09.272,3.033,3.033,0,0,1-1.362-.272,1.6,1.6,0,0,1-.817-.726A1.662,1.662,0,0,1,73.7,27.2Z" transform="translate(-6.78 -2.134)"/>
    <path id="Pfad_1432" data-name="Pfad 1432" d="M83.921,23.08h.817v3.36a4.921,4.921,0,0,1-.182,1.362,1.553,1.553,0,0,1-.726.817,3.078,3.078,0,0,1-2.724.091,1.289,1.289,0,0,1-.726-.817A3.323,3.323,0,0,1,80.2,26.44V23.08h.817v3.36a2.606,2.606,0,0,0,.182,1.09.908.908,0,0,0,.454.545,2.651,2.651,0,0,0,.817.182c.545,0,1-.091,1.18-.363a2,2,0,0,0,.363-1.453V23.08Zm-2.633-.363V21.9h.726v.817Zm1.453,0V21.9h.726v.817Z" transform="translate(-7.377 -2.015)"/>
    <path id="Pfad_1433" data-name="Pfad 1433" d="M86.7,29.11V23.3h2a2.824,2.824,0,0,1,1,.091,1.226,1.226,0,0,1,.817.454,4.031,4.031,0,0,1,.726,1,3.314,3.314,0,0,1,.272,1.362,4.6,4.6,0,0,1-.182,1.18,3.559,3.559,0,0,1-.363.817l-.545.545a6.253,6.253,0,0,1-.726.272,2.8,2.8,0,0,1-.908.091Zm.726-.726H88.7a2.533,2.533,0,0,0,.908-.091l.545-.272a1.979,1.979,0,0,0,.454-.726,3.9,3.9,0,0,0,.182-1.09,3.187,3.187,0,0,0-.272-1.453,1.217,1.217,0,0,0-.726-.636,2.824,2.824,0,0,0-1-.091H87.517v4.358Z" transform="translate(-7.976 -2.142)"/>
    <path id="Pfad_1434" data-name="Pfad 1434" d="M94.707,29.1V23.926H92.8V23.2h4.631v.726H95.524V29.1Z" transform="translate(-8.537 -2.134)"/>
    <path id="Pfad_1435" data-name="Pfad 1435" d="M99,29.111V23.3h.817v5.811Z" transform="translate(-9.108 -2.144)"/>
    <path id="Pfad_1436" data-name="Pfad 1436" d="M101.5,29.111V23.3h2.633a3.559,3.559,0,0,1,1.18.182,1.217,1.217,0,0,1,.636.545,1.534,1.534,0,0,1,.272.908,1.589,1.589,0,0,1-.363,1.09,1.816,1.816,0,0,1-1.271.545,1.989,1.989,0,0,1,.454.272,3.187,3.187,0,0,1,.636.817l1,1.634h-1l-.817-1.18c-.182-.363-.454-.636-.545-.817s-.272-.272-.363-.363-.272-.091-.363-.182h-1.362v2.633H101.5Zm.817-3.269h1.634a2.016,2.016,0,0,0,.817-.091.908.908,0,0,0,.454-.363,1.289,1.289,0,0,0,.182-.545,1.035,1.035,0,0,0-.272-.726,1.353,1.353,0,0,0-.908-.272h-1.816v2Z" transform="translate(-9.338 -2.143)"/>
    <path id="Pfad_1437" data-name="Pfad 1437" d="M107.9,26.187a3.024,3.024,0,0,1,.817-2.27,2.942,2.942,0,0,1,3.45-.454,2.887,2.887,0,0,1,1,1.09,4.277,4.277,0,0,1,.363,1.544,3.324,3.324,0,0,1-.363,1.634,2.343,2.343,0,0,1-1,1.09,3.087,3.087,0,0,1-2.906,0,2.888,2.888,0,0,1-1-1.09,2.987,2.987,0,0,1-.363-1.544Zm.726,0a2.216,2.216,0,0,0,.545,1.634,1.979,1.979,0,0,0,1.453.636,1.816,1.816,0,0,0,1.453-.636,2.615,2.615,0,0,0,.545-1.725,2.9,2.9,0,0,0-.272-1.271,1.6,1.6,0,0,0-.726-.817,1.816,1.816,0,0,0-1-.272,2.225,2.225,0,0,0-1.453.545A3.632,3.632,0,0,0,108.626,26.187Z" transform="translate(-9.926 -2.125)"/>
    <path id="Pfad_1438" data-name="Pfad 1438" d="M115.2,29.111V23.3h.817v5.176h2.906V29.2H115.2Z" transform="translate(-10.598 -2.144)"/>
    <path id="Pfad_1439" data-name="Pfad 1439" d="M170.2,18.31V12.5h2.179a2.533,2.533,0,0,1,.908.091,6.255,6.255,0,0,1,.726.272,1.335,1.335,0,0,1,.454.545,2.651,2.651,0,0,1,.182.817A2.17,2.17,0,0,1,174.2,15.5a2.179,2.179,0,0,1-1.725.545h-1.544V18.4H170.2Zm.817-3.087h1.544a1.934,1.934,0,0,0,1.09-.272c.272-.182.272-.454.272-.817a1.317,1.317,0,0,0-.182-.636.908.908,0,0,0-.454-.363,4.886,4.886,0,0,0-.726-.091h-1.453v2.179Z" transform="translate(-15.658 -1.149)"/>
    <path id="Pfad_1440" data-name="Pfad 1440" d="M176.1,18.311V12.5h2.633a3.559,3.559,0,0,1,1.18.182,1.217,1.217,0,0,1,.636.545,1.535,1.535,0,0,1,.272.908,1.589,1.589,0,0,1-.363,1.09,1.816,1.816,0,0,1-1.271.545,1.988,1.988,0,0,1,.454.272,3.187,3.187,0,0,1,.636.817l1,1.634h-1l-.817-1.18c-.182-.363-.454-.636-.545-.817l-.363-.363c-.091-.091-.272-.091-.363-.182h-1.362v2.633H176.1Zm.817-3.269h1.634a2.016,2.016,0,0,0,.817-.091.908.908,0,0,0,.454-.363,1.289,1.289,0,0,0,.182-.545,1.035,1.035,0,0,0-.272-.726,1.353,1.353,0,0,0-.908-.272h-1.816v2Z" transform="translate(-16.201 -1.15)"/>
    <path id="Pfad_1441" data-name="Pfad 1441" d="M182.2,15.387a3.024,3.024,0,0,1,.817-2.27,2.942,2.942,0,0,1,3.45-.454,2.888,2.888,0,0,1,1,1.09,4.277,4.277,0,0,1,.363,1.544,3.323,3.323,0,0,1-.363,1.634,2.343,2.343,0,0,1-1,1.09,3.087,3.087,0,0,1-2.906,0,2.888,2.888,0,0,1-1-1.09A2.987,2.987,0,0,1,182.2,15.387Zm.817,0a2.216,2.216,0,0,0,.545,1.634,1.979,1.979,0,0,0,1.453.636,1.816,1.816,0,0,0,1.453-.636,2.615,2.615,0,0,0,.545-1.725,2.9,2.9,0,0,0-.272-1.271,1.6,1.6,0,0,0-.726-.817,1.816,1.816,0,0,0-1-.272,2.225,2.225,0,0,0-1.453.545,2.978,2.978,0,0,0-.545,1.907Z" transform="translate(-16.761 -1.132)"/>
    <path id="Pfad_1442" data-name="Pfad 1442" d="M190.97,18.311,188.7,12.5h.817l1.544,4.268c.091.363.182.636.272,1,.091-.363.182-.636.272-1l1.544-4.268h.817l-2.27,5.811Z" transform="translate(-17.36 -1.15)"/>
    <path id="Pfad_1443" data-name="Pfad 1443" d="M195.4,18.311V12.5h.817v5.811Z" transform="translate(-17.976 -1.15)"/>
    <path id="Pfad_1444" data-name="Pfad 1444" d="M197.7,18.311V12.5h.817l3.087,4.631V12.5h.726v5.811h-.817l-3.087-4.631v4.631Z" transform="translate(-18.188 -1.15)"/>
    <path id="Pfad_1445" data-name="Pfad 1445" d="M208.258,16.213l.817.182a2.67,2.67,0,0,1-.908,1.453,2.288,2.288,0,0,1-1.544.545,2.6,2.6,0,0,1-1.544-.363,2.67,2.67,0,0,1-.908-1.09A4.24,4.24,0,0,1,203.9,15.4a3.105,3.105,0,0,1,.363-1.634,2.134,2.134,0,0,1,1-1,2.66,2.66,0,0,1,1.453-.363,2.515,2.515,0,0,1,1.453.454,2.579,2.579,0,0,1,.817,1.271l-.726.182a1.389,1.389,0,0,0-.636-.908,1.634,1.634,0,0,0-1-.272,1.444,1.444,0,0,0-1.09.363,1.662,1.662,0,0,0-.636.908,4.539,4.539,0,0,0-.182,1.09,5.358,5.358,0,0,0,.182,1.271,1.98,1.98,0,0,0,.636.817,1.816,1.816,0,0,0,1,.272,1.444,1.444,0,0,0,1.09-.363,5.549,5.549,0,0,0,.636-1.271Z" transform="translate(-18.758 -1.141)"/>
    <path id="Pfad_1446" data-name="Pfad 1446" d="M210.6,18.311V12.5h.817v5.811Z" transform="translate(-19.375 -1.15)"/>
    <path id="Pfad_1447" data-name="Pfad 1447" d="M212.1,18.311l2.27-5.811h.817l2.361,5.811h-.908l-.726-1.816h-2.452l-.636,1.816Zm1.725-2.452h2l-.636-1.634c-.182-.454-.363-.908-.454-1.18l-.272,1.09Z" transform="translate(-19.513 -1.15)"/>
    <path id="Pfad_1448" data-name="Pfad 1448" d="M221.8,18.311l2.27-5.811h.817l2.361,5.811h-.908l-.726-1.816h-2.452l-.636,1.816Zm1.725-2.452h2l-.636-1.634c-.182-.454-.363-.908-.454-1.18l-.272,1.09Z" transform="translate(-20.405 -1.15)"/>
    <path id="Pfad_1449" data-name="Pfad 1449" d="M232.321,12.4h.817v3.36a4.923,4.923,0,0,1-.182,1.362,1.553,1.553,0,0,1-.726.817,3.078,3.078,0,0,1-2.724.091,1.289,1.289,0,0,1-.726-.817,3.324,3.324,0,0,1-.182-1.453V12.4h.817v3.36a2.606,2.606,0,0,0,.182,1.09.908.908,0,0,0,.454.545,2.651,2.651,0,0,0,.817.182c.545,0,1-.091,1.18-.363a2.57,2.57,0,0,0,.363-1.453V12.4Z" transform="translate(-21.029 -1.141)"/>
    <path id="Pfad_1450" data-name="Pfad 1450" d="M236.307,18.3V13.126H234.4V12.4h4.631v.726h-1.907V18.3Z" transform="translate(-21.564 -1.141)"/>
    <path id="Pfad_1451" data-name="Pfad 1451" d="M239.8,15.387a3.024,3.024,0,0,1,.817-2.27,2.942,2.942,0,0,1,3.45-.454,2.888,2.888,0,0,1,1,1.09,4.277,4.277,0,0,1,.363,1.544,3.324,3.324,0,0,1-.363,1.634,2.343,2.343,0,0,1-1,1.09,3.087,3.087,0,0,1-2.906,0,2.888,2.888,0,0,1-1-1.09,2.988,2.988,0,0,1-.363-1.544Zm.817,0a2.216,2.216,0,0,0,.545,1.634,1.979,1.979,0,0,0,1.453.636,1.816,1.816,0,0,0,1.453-.636,2.615,2.615,0,0,0,.545-1.725,2.9,2.9,0,0,0-.272-1.271,1.6,1.6,0,0,0-.726-.817,1.816,1.816,0,0,0-1-.272,2.225,2.225,0,0,0-1.453.545A2.978,2.978,0,0,0,240.617,15.387Z" transform="translate(-22.06 -1.132)"/>
    <path id="Pfad_1452" data-name="Pfad 1452" d="M246.9,18.311V12.5h.817l3.087,4.631V12.5h.726v5.811h-.817l-3.087-4.631v4.631Z" transform="translate(-22.714 -1.15)"/>
    <path id="Pfad_1453" data-name="Pfad 1453" d="M253.1,15.387a3.024,3.024,0,0,1,.817-2.27,2.942,2.942,0,0,1,3.45-.454,2.888,2.888,0,0,1,1,1.09,4.277,4.277,0,0,1,.363,1.544,3.323,3.323,0,0,1-.363,1.634,2.343,2.343,0,0,1-1,1.09,3.087,3.087,0,0,1-2.906,0,2.887,2.887,0,0,1-1-1.09,2.988,2.988,0,0,1-.363-1.544Zm.817,0a2.216,2.216,0,0,0,.545,1.634,1.98,1.98,0,0,0,1.453.636,1.816,1.816,0,0,0,1.453-.636,2.616,2.616,0,0,0,.545-1.725,2.9,2.9,0,0,0-.272-1.271,1.6,1.6,0,0,0-.726-.817,1.816,1.816,0,0,0-1-.272,2.225,2.225,0,0,0-1.453.545,2.978,2.978,0,0,0-.545,1.907Z" transform="translate(-23.284 -1.132)"/>
    <path id="Pfad_1454" data-name="Pfad 1454" d="M260.2,18.311V12.5h1.18l1.362,4.177c.091.363.182.636.272.908a5.63,5.63,0,0,0,.272-.908l1.362-4.086h1V18.4h-.726V13.5L263.2,18.4h-.726l-1.725-4.994V18.4H260.2Z" transform="translate(-23.938 -1.15)"/>
    <path id="Pfad_1455" data-name="Pfad 1455" d="M266.9,18.311l2.27-5.811h.817l2.361,5.811h-.908l-.726-1.816h-2.452l-.636,1.816Zm1.725-2.452h2l-.636-1.634c-.182-.454-.363-.908-.454-1.18l-.272,1.09Z" transform="translate(-24.554 -1.15)"/>
    <path id="Pfad_1456" data-name="Pfad 1456" d="M170.2,29.11V23.3h2a2.824,2.824,0,0,1,1,.091,1.226,1.226,0,0,1,.817.454,4.031,4.031,0,0,1,.726,1,3.314,3.314,0,0,1,.272,1.362,4.6,4.6,0,0,1-.182,1.18,3.56,3.56,0,0,1-.363.817l-.545.545a6.254,6.254,0,0,1-.726.272,2.8,2.8,0,0,1-.908.091Zm.817-.726h1.271a2.533,2.533,0,0,0,.908-.091l.545-.272a1.98,1.98,0,0,0,.454-.726,3.9,3.9,0,0,0,.182-1.09,3.187,3.187,0,0,0-.272-1.453,1.217,1.217,0,0,0-.726-.636,2.824,2.824,0,0,0-1-.091h-1.271v4.358Z" transform="translate(-15.658 -2.142)"/>
    <path id="Pfad_1457" data-name="Pfad 1457" d="M176.7,29.111V23.3h.817v5.811Z" transform="translate(-16.256 -2.144)"/>
    <path id="Pfad_1458" data-name="Pfad 1458" d="M181.3,29.111V23.3h2.179a3.387,3.387,0,0,1,1.09.182,1.217,1.217,0,0,1,.636.545,1.462,1.462,0,0,1,.272.817,2.133,2.133,0,0,1-.182.726,3.949,3.949,0,0,1-.636.545,1.326,1.326,0,0,1,.817.545,1.534,1.534,0,0,1,.272.908,1.707,1.707,0,0,1-.182.726.908.908,0,0,1-.454.545,4.43,4.43,0,0,1-.636.272,2.8,2.8,0,0,1-.908.091H181.3Zm.817-3.45h1.271a1.562,1.562,0,0,0,.726-.091,1.989,1.989,0,0,0,.454-.272.772.772,0,0,0,.182-.545,1.289,1.289,0,0,0-.182-.545c-.091-.182-.182-.272-.363-.272s-.454-.091-.908-.091h-1.18Zm0,2.724h2a.69.69,0,0,0,.454-.182,1.254,1.254,0,0,0,.272-.363.817.817,0,0,0,.091-.454,1.289,1.289,0,0,0-.182-.545.908.908,0,0,0-.454-.363,2.016,2.016,0,0,0-.817-.091h-1.362v2Z" transform="translate(-16.679 -2.144)"/>
    <path id="Pfad_1459" data-name="Pfad 1459" d="M187,26.187a3.024,3.024,0,0,1,.817-2.27,2.942,2.942,0,0,1,3.45-.454,2.888,2.888,0,0,1,1,1.09,4.277,4.277,0,0,1,.363,1.544,3.324,3.324,0,0,1-.363,1.634,2.343,2.343,0,0,1-1,1.09,3.087,3.087,0,0,1-2.906,0,2.887,2.887,0,0,1-1-1.09A2.987,2.987,0,0,1,187,26.187Zm.817,0a2.215,2.215,0,0,0,.545,1.634,1.979,1.979,0,0,0,1.453.636,1.816,1.816,0,0,0,1.453-.636,2.615,2.615,0,0,0,.545-1.725,2.9,2.9,0,0,0-.272-1.271,1.6,1.6,0,0,0-.726-.817,1.816,1.816,0,0,0-1-.272,2.225,2.225,0,0,0-1.453.545,2.978,2.978,0,0,0-.545,1.907Z" transform="translate(-17.203 -2.125)"/>
    <path id="Pfad_1460" data-name="Pfad 1460" d="M194.1,29.111V23.3h.817v5.176h2.906V29.2H194.1Z" transform="translate(-17.857 -2.144)"/>
    <path id="Pfad_1461" data-name="Pfad 1461" d="M198.6,29.1v-.726l3-3.723c.182-.272.454-.454.636-.726h-3.269V23.2h4.177v.726l-3.269,4.086-.363.454h3.723v.726H198.6Z" transform="translate(-18.271 -2.134)"/>
    <path id="Pfad_1462" data-name="Pfad 1462" d="M203.8,29.111l2.27-5.811h.817l2.361,5.811h-.908l-.726-1.816h-2.452l-.636,1.816Zm1.634-2.452h2l-.636-1.634c-.182-.454-.363-.908-.454-1.18l-.272,1.09Z" transform="translate(-18.749 -2.144)"/>
    <path id="Pfad_1463" data-name="Pfad 1463" d="M210.3,29.111V23.3h.817l3.087,4.631V23.3h.726v5.811h-.817l-3.087-4.631v4.631Z" transform="translate(-19.347 -2.144)"/>
    <path id="Pfad_1464" data-name="Pfad 1464" d="M216.5,26.187a3.024,3.024,0,0,1,.817-2.27,2.942,2.942,0,0,1,3.45-.454,2.887,2.887,0,0,1,1,1.09,4.277,4.277,0,0,1,.363,1.544,3.324,3.324,0,0,1-.363,1.634,2.343,2.343,0,0,1-1,1.09,3.087,3.087,0,0,1-2.906,0,2.888,2.888,0,0,1-1-1.09,2.988,2.988,0,0,1-.363-1.544Zm.817,0a2.216,2.216,0,0,0,.545,1.634,1.979,1.979,0,0,0,1.453.636,1.816,1.816,0,0,0,1.453-.636,2.615,2.615,0,0,0,.545-1.725,2.9,2.9,0,0,0-.272-1.271,1.6,1.6,0,0,0-.726-.817,1.816,1.816,0,0,0-1-.272,2.225,2.225,0,0,0-1.453.545,2.978,2.978,0,0,0-.545,1.907Z" transform="translate(-19.917 -2.125)"/>
    <path id="Pfad_1465" data-name="Pfad 1465" d="M225.6,27.626V26.9h2.179v.726Z" transform="translate(-20.755 -2.475)"/>
    <path id="Pfad_1466" data-name="Pfad 1466" d="M230.1,29.111l2.27-5.811h.817l2.361,5.811h-.908l-.726-1.816h-2.452l-.636,1.816Zm1.725-2.452h2l-.636-1.634c-.182-.454-.363-.908-.454-1.18l-.272,1.09Z" transform="translate(-21.169 -2.144)"/>
    <path id="Pfad_1467" data-name="Pfad 1467" d="M236.7,29.111V23.3h.817v5.176h2.906V29.2H236.7Z" transform="translate(-21.776 -2.144)"/>
    <path id="Pfad_1468" data-name="Pfad 1468" d="M242.407,29.1V23.926H240.5V23.2h4.631v.726h-1.907V29.1Z" transform="translate(-22.125 -2.134)"/>
    <path id="Pfad_1469" data-name="Pfad 1469" d="M245.9,26.187a3.024,3.024,0,0,1,.817-2.27,2.942,2.942,0,0,1,3.45-.454,2.888,2.888,0,0,1,1,1.09,4.277,4.277,0,0,1,.363,1.544,3.323,3.323,0,0,1-.363,1.634,2.343,2.343,0,0,1-1,1.09,3.087,3.087,0,0,1-2.906,0,2.887,2.887,0,0,1-1-1.09,2.987,2.987,0,0,1-.363-1.544Zm.817,0a2.216,2.216,0,0,0,.545,1.634,1.98,1.98,0,0,0,1.453.636,1.816,1.816,0,0,0,1.453-.636,2.615,2.615,0,0,0,.545-1.725,2.9,2.9,0,0,0-.272-1.271,1.6,1.6,0,0,0-.726-.817,1.816,1.816,0,0,0-1-.272,2.225,2.225,0,0,0-1.453.545A2.978,2.978,0,0,0,246.717,26.187Z" transform="translate(-22.621 -2.125)"/>
    <path id="Pfad_1470" data-name="Pfad 1470" d="M254.2,29.111l2.27-5.811h.817l2.361,5.811h-.908l-.726-1.816h-2.452l-.636,1.816Zm1.725-2.452h2l-.636-1.634c-.182-.454-.363-.908-.454-1.18l-.272,1.09Z" transform="translate(-23.386 -2.144)"/>
    <path id="Pfad_1471" data-name="Pfad 1471" d="M260.9,29.11V23.3h2a2.824,2.824,0,0,1,1,.091,1.226,1.226,0,0,1,.817.454,4.031,4.031,0,0,1,.726,1,3.314,3.314,0,0,1,.272,1.362,4.6,4.6,0,0,1-.182,1.18,3.559,3.559,0,0,1-.363.817l-.545.545a6.253,6.253,0,0,1-.726.272,2.8,2.8,0,0,1-.908.091Zm.726-.726H262.9a2.533,2.533,0,0,0,.908-.091l.545-.272a1.98,1.98,0,0,0,.454-.726,3.9,3.9,0,0,0,.182-1.09,3.187,3.187,0,0,0-.272-1.453,1.217,1.217,0,0,0-.726-.636,2.824,2.824,0,0,0-1-.091h-1.271v4.358Z" transform="translate(-24.002 -2.142)"/>
    <path id="Pfad_1472" data-name="Pfad 1472" d="M267.4,29.111V23.3h.817v5.811Z" transform="translate(-24.6 -2.144)"/>
    <path id="Pfad_1473" data-name="Pfad 1473" d="M272.4,26.732v-.726h2.452v2.179a8.289,8.289,0,0,1-1.18.726,2.9,2.9,0,0,1-1.271.272,2.987,2.987,0,0,1-1.544-.363,3.132,3.132,0,0,1-1.09-1.09,2.987,2.987,0,0,1-.363-1.544,3.559,3.559,0,0,1,.363-1.634,2.887,2.887,0,0,1,1-1.09,2.987,2.987,0,0,1,1.544-.363,4.6,4.6,0,0,1,1.18.182,3.168,3.168,0,0,1,.817.545,2.052,2.052,0,0,1,.454,1l-.726.182a1.816,1.816,0,0,0-.363-.726,2.876,2.876,0,0,0-.545-.454,1.353,1.353,0,0,0-.817-.182,2.724,2.724,0,0,0-.908.182,1.625,1.625,0,0,0-.636.454,1.9,1.9,0,0,0-.363.545,2.488,2.488,0,0,0-.182,1.18,2.406,2.406,0,0,0,.272,1.271,1.816,1.816,0,0,0,.817.817,2.415,2.415,0,0,0,1.09.272,3.859,3.859,0,0,0,1-.182,1.435,1.435,0,0,0,.726-.454v-1.09H272.4Z" transform="translate(-24.784 -2.125)"/>
    <path id="Pfad_1474" data-name="Pfad 1474" d="M276.5,29.111V23.3h4.268v.726h-3.45v1.816h3.269v.726h-3.269v2h3.632v.726H276.5Z" transform="translate(-25.437 -2.144)"/>
    <path id="Pfad_1475" data-name="Pfad 1475" d="M262.958,38.1H154.27m-46.036,0H0" transform="translate(0 -3.505)" fill="none" stroke="#000" stroke-width="0.25"/>
    <path id="Pfad_1476" data-name="Pfad 1476" d="M39.1,52.71V46.9h2.179a2.533,2.533,0,0,1,.908.091,6.256,6.256,0,0,1,.726.272,1.335,1.335,0,0,1,.454.545,1.816,1.816,0,0,1-2,2.633H39.826V52.8H39.1Zm.726-3.087H41.37a1.743,1.743,0,0,0,1.09-.272,1.108,1.108,0,0,0,.272-.817,1.317,1.317,0,0,0-.182-.636.908.908,0,0,0-.454-.363,4.885,4.885,0,0,0-.726-.091H39.917v2.179Z" transform="translate(-3.597 -4.314)"/>
    <path id="Pfad_1477" data-name="Pfad 1477" d="M45.2,52.711V46.9h2.633a3.559,3.559,0,0,1,1.18.182,1.217,1.217,0,0,1,.636.545,1.535,1.535,0,0,1,.272.908,1.589,1.589,0,0,1-.363,1.09,2.352,2.352,0,0,1-1.271.545,1.989,1.989,0,0,1,.454.272,3.187,3.187,0,0,1,.636.817l1,1.634h-1l-.726-1.362c-.182-.363-.454-.636-.545-.817l-.363-.363c-.091-.091-.272-.091-.363-.182H46.017V52.8H45.2Zm.817-3.269h1.634a2.016,2.016,0,0,0,.817-.091.908.908,0,0,0,.454-.363,1.289,1.289,0,0,0,.182-.545,1.035,1.035,0,0,0-.272-.726,1.353,1.353,0,0,0-.908-.272H46.108v2Z" transform="translate(-4.158 -4.315)"/>
    <path id="Pfad_1478" data-name="Pfad 1478" d="M51.5,49.887a3.024,3.024,0,0,1,.817-2.27,2.942,2.942,0,0,1,3.45-.454,2.887,2.887,0,0,1,1,1.09,4.277,4.277,0,0,1,.363,1.544,3.323,3.323,0,0,1-.363,1.634,2.343,2.343,0,0,1-1,1.09,3.087,3.087,0,0,1-2.906,0,2.887,2.887,0,0,1-1-1.09,2.987,2.987,0,0,1-.363-1.544Zm.817,0a2.216,2.216,0,0,0,.545,1.634,1.979,1.979,0,0,0,1.453.636,1.816,1.816,0,0,0,1.453-.636,2.615,2.615,0,0,0,.545-1.725,2.9,2.9,0,0,0-.272-1.271,1.6,1.6,0,0,0-.726-.817,1.816,1.816,0,0,0-1-.272,2.225,2.225,0,0,0-1.453.545A2.66,2.66,0,0,0,52.317,49.887Z" transform="translate(-4.737 -4.305)"/>
    <path id="Pfad_1479" data-name="Pfad 1479" d="M60.57,52.711,58.3,46.9h.817l1.544,4.268c.091.363.182.636.272,1,.091-.363.182-.636.272-1L62.749,46.9h.817L61.3,52.711Z" transform="translate(-5.363 -4.315)"/>
    <path id="Pfad_1480" data-name="Pfad 1480" d="M65.2,52.711V46.9h.817v5.811Z" transform="translate(-5.998 -4.315)"/>
    <path id="Pfad_1481" data-name="Pfad 1481" d="M67.6,52.711V46.9h.817L71.5,51.531V46.9h.726v5.811h-.817L68.326,48.08v4.631Z" transform="translate(-6.219 -4.315)"/>
    <path id="Pfad_1482" data-name="Pfad 1482" d="M73.7,52.7v-.726l3-3.723c.182-.272.454-.454.636-.726H74.063V46.8H78.24v.726l-3.269,4.086-.363.454h3.723v.726H73.7Z" transform="translate(-6.78 -4.305)"/>
    <path id="Pfad_1483" data-name="Pfad 1483" d="M80,52.711V46.9h.817v5.811Z" transform="translate(-7.36 -4.315)"/>
    <path id="Pfad_1484" data-name="Pfad 1484" d="M81.7,52.711,83.97,46.9h.817l2.361,5.811H86.24L85.514,50.9H83.062l-.636,1.816Zm1.725-2.361h2l-.636-1.634c-.182-.454-.363-.908-.454-1.18l-.272,1.09Z" transform="translate(-7.516 -4.315)"/>
    <path id="Pfad_1485" data-name="Pfad 1485" d="M90,52.711,92.27,46.9h.817l2.361,5.811H94.54L93.814,50.9H91.362l-.636,1.816Zm1.634-2.361h2L93,48.716c-.182-.454-.363-.908-.454-1.18l-.272,1.09Z" transform="translate(-8.28 -4.315)"/>
    <path id="Pfad_1486" data-name="Pfad 1486" d="M100.621,46.9h.817v3.36a4.921,4.921,0,0,1-.182,1.362,1.553,1.553,0,0,1-.726.817,3.078,3.078,0,0,1-2.724.091,1.289,1.289,0,0,1-.726-.817A3.323,3.323,0,0,1,96.9,50.26V46.9h.817v3.36a2.606,2.606,0,0,0,.182,1.09.908.908,0,0,0,.454.545,2.651,2.651,0,0,0,.817.182c.545,0,1-.091,1.18-.363a2,2,0,0,0,.363-1.453V46.9Z" transform="translate(-8.913 -4.315)"/>
    <path id="Pfad_1487" data-name="Pfad 1487" d="M104.807,52.7V47.526H102.9V46.8h4.631v.726h-1.907V52.7Z" transform="translate(-9.467 -4.305)"/>
    <path id="Pfad_1488" data-name="Pfad 1488" d="M108.6,49.887a3.024,3.024,0,0,1,.817-2.27,2.942,2.942,0,0,1,3.45-.454,2.887,2.887,0,0,1,1,1.09,4.277,4.277,0,0,1,.363,1.544,3.323,3.323,0,0,1-.363,1.634,2.343,2.343,0,0,1-1,1.09,3.087,3.087,0,0,1-2.906,0,2.887,2.887,0,0,1-1-1.09,2.987,2.987,0,0,1-.363-1.544Zm.817,0a2.216,2.216,0,0,0,.545,1.634,1.979,1.979,0,0,0,1.453.636,1.816,1.816,0,0,0,1.453-.636,2.615,2.615,0,0,0,.545-1.725,2.9,2.9,0,0,0-.272-1.271,1.6,1.6,0,0,0-.726-.817,1.816,1.816,0,0,0-1-.272,2.225,2.225,0,0,0-1.453.545A2.661,2.661,0,0,0,109.417,49.887Z" transform="translate(-9.99 -4.305)"/>
    <path id="Pfad_1489" data-name="Pfad 1489" d="M115.9,52.711V46.9h.817l3.087,4.631V46.9h.726v5.811h-.817l-3.087-4.631v4.631Z" transform="translate(-10.662 -4.315)"/>
    <path id="Pfad_1490" data-name="Pfad 1490" d="M122.3,49.887a3.023,3.023,0,0,1,.817-2.27,2.942,2.942,0,0,1,3.45-.454,2.888,2.888,0,0,1,1,1.09,4.277,4.277,0,0,1,.363,1.544,3.323,3.323,0,0,1-.363,1.634,2.343,2.343,0,0,1-1,1.09,3.087,3.087,0,0,1-2.906,0,2.887,2.887,0,0,1-1-1.09,2.987,2.987,0,0,1-.363-1.544Zm.817,0a2.216,2.216,0,0,0,.545,1.634,1.979,1.979,0,0,0,1.453.636,1.816,1.816,0,0,0,1.453-.636,2.615,2.615,0,0,0,.545-1.725,2.9,2.9,0,0,0-.272-1.271,1.6,1.6,0,0,0-.726-.817,1.816,1.816,0,0,0-1-.272,2.225,2.225,0,0,0-1.453.545A2.66,2.66,0,0,0,123.117,49.887Z" transform="translate(-11.251 -4.305)"/>
    <path id="Pfad_1491" data-name="Pfad 1491" d="M129.6,52.711V46.9h1.18l1.362,4.177c.091.363.182.636.272.908a5.638,5.638,0,0,0,.272-.908l1.362-4.086h1V52.8H134.5V47.9l-1.725,4.9h-.726l-1.725-4.994V52.8H129.6Z" transform="translate(-11.923 -4.315)"/>
    <path id="Pfad_1492" data-name="Pfad 1492" d="M136.6,52.711l2.27-5.811h.817l2.361,5.811h-.908l-.726-1.816h-2.452l-.636,1.816Zm1.634-2.361h2l-.636-1.634c-.182-.454-.363-.908-.454-1.18l-.272,1.09Z" transform="translate(-12.567 -4.315)"/>
    <path id="Pfad_1493" data-name="Pfad 1493" d="M145.5,52.71V46.9h2a2.824,2.824,0,0,1,1,.091,1.226,1.226,0,0,1,.817.454,4.031,4.031,0,0,1,.726,1,3.315,3.315,0,0,1,.272,1.362,4.6,4.6,0,0,1-.182,1.18,3.559,3.559,0,0,1-.363.817l-.545.545a6.253,6.253,0,0,1-.726.272,2.8,2.8,0,0,1-.908.091Zm.726-.636H147.5a2.533,2.533,0,0,0,.908-.091l.545-.272a1.98,1.98,0,0,0,.454-.726,3.9,3.9,0,0,0,.182-1.09,3.187,3.187,0,0,0-.272-1.453,1.217,1.217,0,0,0-.726-.636,2.824,2.824,0,0,0-1-.091h-1.271v4.358Z" transform="translate(-13.386 -4.314)"/>
    <path id="Pfad_1494" data-name="Pfad 1494" d="M152.1,52.711V46.9h4.268v.726h-3.45v1.816h3.269v.726h-3.269v2h3.632v.726H152.1Z" transform="translate(-13.993 -4.315)"/>
    <path id="Pfad_1495" data-name="Pfad 1495" d="M160.8,52.711V46.9h2.179a3.387,3.387,0,0,1,1.09.182,1.217,1.217,0,0,1,.636.545,1.453,1.453,0,0,1,.272.726,2.134,2.134,0,0,1-.182.726,3.95,3.95,0,0,1-.636.545,1.326,1.326,0,0,1,.817.545,1.535,1.535,0,0,1,.272.908,1.707,1.707,0,0,1-.182.726.908.908,0,0,1-.454.545,4.43,4.43,0,0,1-.636.272,2.8,2.8,0,0,1-.908.091Zm.726-3.36H162.8a1.562,1.562,0,0,0,.726-.091,1.989,1.989,0,0,0,.454-.272.772.772,0,0,0,.182-.545,1.289,1.289,0,0,0-.182-.545c-.091-.182-.182-.272-.363-.272a2.279,2.279,0,0,0-.908-.091h-1.18Zm0,2.724h2a.69.69,0,0,0,.454-.182,1.253,1.253,0,0,0,.272-.363.817.817,0,0,0,.091-.454,1.29,1.29,0,0,0-.182-.545.908.908,0,0,0-.454-.363,2.016,2.016,0,0,0-.817-.091h-1.362Z" transform="translate(-14.793 -4.315)"/>
    <path id="Pfad_1496" data-name="Pfad 1496" d="M170.821,46.9h.817v3.36a4.921,4.921,0,0,1-.182,1.362,1.553,1.553,0,0,1-.726.817,3.078,3.078,0,0,1-2.724.091,1.289,1.289,0,0,1-.726-.817,3.324,3.324,0,0,1-.182-1.453V46.9h.817v3.36a2.606,2.606,0,0,0,.182,1.09.908.908,0,0,0,.454.545,2.651,2.651,0,0,0,.817.182c.545,0,1-.091,1.18-.363a2,2,0,0,0,.363-1.453V46.9Z" transform="translate(-15.371 -4.315)"/>
    <path id="Pfad_1497" data-name="Pfad 1497" d="M173.5,52.711V46.9h.817v5.176h2.906V52.8H173.5Z" transform="translate(-15.961 -4.315)"/>
    <path id="Pfad_1498" data-name="Pfad 1498" d="M178.4,50.9l.726-.091a1.035,1.035,0,0,0,.272.726,1.335,1.335,0,0,0,.545.454,2.724,2.724,0,0,0,.908.182,2.515,2.515,0,0,0,.817-.091,1.153,1.153,0,0,0,.545-.363,1.29,1.29,0,0,0,.182-.545.69.69,0,0,0-.182-.454.835.835,0,0,0-.545-.363,4.822,4.822,0,0,0-1-.272,3.632,3.632,0,0,1-1.09-.363,3.95,3.95,0,0,1-.636-.545.981.981,0,0,1-.182-.726,1.462,1.462,0,0,1,.272-.817,1.417,1.417,0,0,1,.726-.545,3.9,3.9,0,0,1,1.09-.182,4.6,4.6,0,0,1,1.18.182,1.68,1.68,0,0,1,.726.636,1.535,1.535,0,0,1,.272.908l-.726.091a1.153,1.153,0,0,0-.363-.817,1.634,1.634,0,0,0-1-.272,1.462,1.462,0,0,0-1,.272.908.908,0,0,0-.363.636,1.289,1.289,0,0,0,.182.545,6.356,6.356,0,0,0,1.18.454c.636.182,1.09.272,1.271.363.363.182.636.363.726.636a1.462,1.462,0,0,1,.272.817,1.753,1.753,0,0,1-.272.908,2.451,2.451,0,0,1-.726.636,2.416,2.416,0,0,1-1.09.272,3.033,3.033,0,0,1-1.362-.272,1.6,1.6,0,0,1-.817-.726A1.816,1.816,0,0,1,178.4,50.9Z" transform="translate(-16.412 -4.315)"/>
    <path id="Pfad_1499" data-name="Pfad 1499" d="M184.1,52.711l2.27-5.811h.817l2.361,5.811h-.908l-.726-1.816h-2.452l-.636,1.816Zm1.634-2.361h2l-.636-1.634c-.182-.454-.363-.908-.454-1.18l-.272,1.09Z" transform="translate(-16.937 -4.315)"/>
    <path id="Pfad_1500" data-name="Pfad 1500" d="M190.9,52.711V46.9h.817l3.087,4.631V46.9h.726v5.811h-.817l-3.087-4.631v4.631Z" transform="translate(-17.562 -4.315)"/>
    <path id="Pfad_1501" data-name="Pfad 1501" d="M199.7,51.326V50.6h2.179v.726Z" transform="translate(-18.372 -4.655)"/>
    <path id="Pfad_1502" data-name="Pfad 1502" d="M205.5,50.9l.726-.091a1.035,1.035,0,0,0,.272.726,1.334,1.334,0,0,0,.545.454,2.724,2.724,0,0,0,.908.182,2.515,2.515,0,0,0,.817-.091,1.153,1.153,0,0,0,.545-.363,1.29,1.29,0,0,0,.182-.545.69.69,0,0,0-.182-.454.836.836,0,0,0-.545-.363,4.822,4.822,0,0,0-1-.272,3.632,3.632,0,0,1-1.09-.363,3.951,3.951,0,0,1-.636-.545.981.981,0,0,1-.182-.726,1.462,1.462,0,0,1,.272-.817,1.417,1.417,0,0,1,.726-.545,3.9,3.9,0,0,1,1.09-.182,4.6,4.6,0,0,1,1.18.182,1.68,1.68,0,0,1,.726.636,1.534,1.534,0,0,1,.272.908l-.726.091a1.153,1.153,0,0,0-.363-.817,1.634,1.634,0,0,0-1-.272,1.462,1.462,0,0,0-1,.272.908.908,0,0,0-.363.636,1.289,1.289,0,0,0,.182.545,6.356,6.356,0,0,0,1.18.454c.636.182,1.09.272,1.271.363.363.182.636.363.726.636a1.462,1.462,0,0,1,.272.817,1.753,1.753,0,0,1-.272.908,2.451,2.451,0,0,1-.726.636,2.415,2.415,0,0,1-1.09.272,3.033,3.033,0,0,1-1.362-.272,1.6,1.6,0,0,1-.817-.726A1.816,1.816,0,0,1,205.5,50.9Z" transform="translate(-18.905 -4.315)"/>
    <path id="Pfad_1503" data-name="Pfad 1503" d="M215.721,46.78h.817v3.36a4.921,4.921,0,0,1-.182,1.362,1.553,1.553,0,0,1-.726.817,3.078,3.078,0,0,1-2.724.091,1.289,1.289,0,0,1-.726-.817A3.323,3.323,0,0,1,212,50.14V46.78h.817v3.36A2.605,2.605,0,0,0,213,51.23a.908.908,0,0,0,.454.545,2.652,2.652,0,0,0,.817.182c.545,0,1-.091,1.18-.363a2,2,0,0,0,.363-1.453V46.78Zm-2.633-.363V45.6h.726v.817Zm1.544,0V45.6h.726v.817Z" transform="translate(-19.502 -4.195)"/>
    <path id="Pfad_1504" data-name="Pfad 1504" d="M218.5,52.71V46.9h2a2.824,2.824,0,0,1,1,.091,1.226,1.226,0,0,1,.817.454,4.031,4.031,0,0,1,.726,1,3.314,3.314,0,0,1,.272,1.362,4.6,4.6,0,0,1-.182,1.18,3.561,3.561,0,0,1-.363.817l-.545.545a6.252,6.252,0,0,1-.726.272,2.8,2.8,0,0,1-.908.091Zm.817-.636h1.271a2.533,2.533,0,0,0,.908-.091l.545-.272a1.98,1.98,0,0,0,.454-.726,3.9,3.9,0,0,0,.182-1.09,3.187,3.187,0,0,0-.272-1.453,1.217,1.217,0,0,0-.726-.636,2.824,2.824,0,0,0-1-.091h-1.271v4.358Z" transform="translate(-20.101 -4.314)"/>
    <path id="Pfad_1505" data-name="Pfad 1505" d="M226.607,52.7V47.526H224.7V46.8h4.631v.726h-1.907V52.7Z" transform="translate(-20.672 -4.305)"/>
    <path id="Pfad_1506" data-name="Pfad 1506" d="M230.9,52.711V46.9h.817v5.811Z" transform="translate(-21.242 -4.315)"/>
    <path id="Pfad_1507" data-name="Pfad 1507" d="M233.4,52.711V46.9h2.633a3.56,3.56,0,0,1,1.18.182,1.217,1.217,0,0,1,.636.545,1.534,1.534,0,0,1,.272.908,1.589,1.589,0,0,1-.363,1.09,2.352,2.352,0,0,1-1.271.545,1.988,1.988,0,0,1,.454.272,3.186,3.186,0,0,1,.636.817l1,1.634h-1l-.817-1.18c-.182-.363-.454-.636-.545-.817l-.363-.363c-.091-.091-.272-.091-.363-.182h-1.362v2.633H233.4Zm.726-3.269h1.634a2.016,2.016,0,0,0,.817-.091.908.908,0,0,0,.454-.363,1.29,1.29,0,0,0,.182-.545,1.035,1.035,0,0,0-.272-.726,1.353,1.353,0,0,0-.908-.272h-1.816v2Z" transform="translate(-21.472 -4.315)"/>
    <path id="Pfad_1508" data-name="Pfad 1508" d="M239.7,49.887a3.024,3.024,0,0,1,.817-2.27,2.942,2.942,0,0,1,3.45-.454,2.887,2.887,0,0,1,1,1.09,4.277,4.277,0,0,1,.363,1.544,3.324,3.324,0,0,1-.363,1.634,2.343,2.343,0,0,1-1,1.09,3.087,3.087,0,0,1-2.906,0,2.888,2.888,0,0,1-1-1.09,2.987,2.987,0,0,1-.363-1.544Zm.817,0a2.216,2.216,0,0,0,.545,1.634,1.98,1.98,0,0,0,1.453.636,1.816,1.816,0,0,0,1.453-.636,2.615,2.615,0,0,0,.545-1.725,2.9,2.9,0,0,0-.272-1.271,1.6,1.6,0,0,0-.726-.817,1.816,1.816,0,0,0-1-.272,2.225,2.225,0,0,0-1.453.545,2.66,2.66,0,0,0-.545,1.907Z" transform="translate(-22.051 -4.305)"/>
    <path id="Pfad_1509" data-name="Pfad 1509" d="M247,52.711V46.9h.817v5.176h2.906V52.8H247Z" transform="translate(-22.723 -4.315)"/>
    <path id="Pfad_1510" data-name="Pfad 1510" d="M158.581,0V20.067c0,12.258-13.529,18.432-15.345,18.523S127.8,33.142,127.8,20.067V0Z" transform="translate(-11.757)"/>
    <path id="Pfad_1511" data-name="Pfad 1511" d="M158.418.2H128V20.085c0,12.984,13.62,18.342,15.254,18.342,1.816-.091,15.164-6.265,15.164-18.342Z" transform="translate(-11.776 -0.018)" fill="#fff"/>
    <path id="Pfad_1512" data-name="Pfad 1512" d="M147.179,29.563l.454.908c.182.454.545.817.454,1.18s-.636.272-.908.272a2.252,2.252,0,0,0-.817.091c-.182.091-.454.363-.363.636.091.454.363.817.363.726a.418.418,0,0,1,.545-.545,1.217,1.217,0,0,0,1.09-.363.7.7,0,0,1,.182-.272c.182-.182.091.182.636.182.182,0,.182-.091.272,0a.534.534,0,0,1,.182.454,1.344,1.344,0,0,0,.091.636,1.535,1.535,0,0,1,.182.454.272.272,0,0,1-.182.363c-.091,0-.272,0-.091.091s.545.182.726,0,.091,0,.272-.091a.769.769,0,0,0,.272-.817,3.459,3.459,0,0,0-.817-1.18c-.091-.091-.182-.091-.091-.182s.091-.182.272-.091.454.272.636.363,1.09.272,1.09.182.182-.091.272,0a3.572,3.572,0,0,1,.182.545.772.772,0,0,0,0-1c-.091-.091.091-.182,0-.272-.182-.363-.817-.363-1.09-.363h-.726c-.182,0-.182.091-.272,0s-.182-.091-.091-.182a5.041,5.041,0,0,1,.545-.726c.091-.091.091,0,.272-.091s.272-.272.182-.363a.172.172,0,0,1,0-.272.6.6,0,0,1,.636.182.545.545,0,0,0-.454-.636c-.272-.091-.363-.091-.454,0a.173.173,0,0,1-.272,0,.173.173,0,0,0-.272,0c-.454.091-.545,1.362-.636,1.453s-.182.182-.272.182-.091-.091-.272-.363a5.225,5.225,0,0,0-.454-.817,2.361,2.361,0,0,1-.272-.636" transform="translate(-13.43 -2.686)" fill="#ffed00"/>
    <path id="Pfad_1513" data-name="Pfad 1513" d="M151.319,29.917c0-.182-.182-.454-.363-.454s-.363-.091-.454,0-.272,0-.454,0h-.182c-.272.091-.454.817-.545,1.18v.272c-.091.272-.363.363-.545.091l-.091-.091-.091-.182a8.044,8.044,0,0,1-.726-1.544l.091-.091c.272.545.454,1,.726,1.544l.091.182.091.091a.172.172,0,0,0,.272-.091v-.272c.091-.363.182-1.09.545-1.271.091,0,.272-.091.363.091s.091.091.182,0,.272-.091.545-.091a.681.681,0,0,1,.454.636v.091a.091.091,0,0,1-.091.091c-.182-.182-.454-.272-.545-.182s-.091.091,0,.182a.336.336,0,0,1-.182.454h-.272a2.724,2.724,0,0,0-.454.636.2.2,0,0,0,.182.182c.182,0,.272-.091.454-.091h.363c.363,0,1,0,1.18.454v.272c.363.363.182,1.18-.091,1.09h-.091v-.272a.907.907,0,0,0-.091-.272l-.091-.091h-.182a7.554,7.554,0,0,1-1.18-.182,3.952,3.952,0,0,1-.636-.363h-.091a.091.091,0,0,0-.091.091V32.1l.091.091a3.46,3.46,0,0,1,.817,1.18.772.772,0,0,1-.272.908c-.091,0-.091,0-.182.091a.908.908,0,0,1-.817,0c-.091-.091-.091-.182,0-.182h.182a.173.173,0,0,0,.091-.272c-.091-.272-.272-.454-.272-.726v-.363a.527.527,0,0,0-.091-.363h-.182a.563.563,0,0,1-.636-.182c-.091,0-.091.091-.182.091l-.091.182a1.417,1.417,0,0,1-1.18.363c-.182,0-.272,0-.363.091a.681.681,0,0,0-.091.454.091.091,0,0,1-.091.091h-.091a2.724,2.724,0,0,1-.363-.726.627.627,0,0,1,.454-.726,2.252,2.252,0,0,1,.817-.091c.182,0,.817,0,.817-.272a2.8,2.8,0,0,0-.454-1.09l-.454-.908.091-.091.454.908c.182.363.545.817.454,1.18s-.726.363-.908.363h-.817c-.182,0-.363.272-.363.636a.972.972,0,0,0,.182.545l.091.091a.5.5,0,0,1,.182-.454c.091-.182.272-.091.454-.091a1.217,1.217,0,0,0,1.09-.363l.091-.182.091-.091c.091-.091.182-.091.182,0s.182.182.454.182h.272c.182,0,.182.272.182.545a1.816,1.816,0,0,0,.091.636,1.534,1.534,0,0,1,.182.454.327.327,0,0,1-.182.454.572.572,0,0,0,.545,0c.091-.091.091-.091.272-.091a.608.608,0,0,0,.182-.726,3.46,3.46,0,0,0-.817-1.18c-.091-.091-.272-.182-.091-.272a.091.091,0,0,0,.091-.091c.091-.091.182,0,.272,0a5.208,5.208,0,0,1,.636.363,1.707,1.707,0,0,0,1.09.182c.182-.091.272-.091.363.091a.545.545,0,0,1,.091.363v.182a.7.7,0,0,0-.091-.908v-.091c0-.091.091-.182,0-.182-.091-.272-.817-.363-1.09-.363h-.636c-.091,0-.182.091-.363,0s-.182-.091-.182-.272a5.039,5.039,0,0,1,.545-.726.091.091,0,0,0,.091-.091l.091-.091c.182-.091.182-.182.182-.272a.272.272,0,0,1,0-.363,1.371,1.371,0,0,1,1.09,0Z" transform="translate(-13.394 -2.677)"/>
    <path id="Pfad_1514" data-name="Pfad 1514" d="M146,32.886s.545-.454.817.272" transform="translate(-13.432 -3.013)" fill="#ffed00"/>
    <path id="Pfad_1515" data-name="Pfad 1515" d="M145.9,32.778l.091-.091c.363-.272.636-.091.817.363l-.091.091c-.182-.363-.363-.454-.726-.272.091,0,0,0-.091-.091Z" transform="translate(-13.422 -2.995)"/>
    <path id="Pfad_1516" data-name="Pfad 1516" d="M149.8,34.391a.318.318,0,0,1,.182-.091.409.409,0,0,1,.363.454" transform="translate(-13.781 -3.155)" fill="#ffed00"/>
    <path id="Pfad_1517" data-name="Pfad 1517" d="M149.7,34.287h0c.091-.091.182-.182.272-.091a.409.409,0,0,1,.363.454h-.091c0-.272-.182-.363-.272-.363H149.7Z" transform="translate(-13.772 -3.142)"/>
    <path id="Pfad_1518" data-name="Pfad 1518" d="M152.092,32.735h0c-.091-.272-.182-.545.182-.636a.545.545,0,0,1,.363.091l-.091.091h-.091c-.363-.091-.363.091-.272.363v.091Z" transform="translate(-13.985 -2.953)"/>
    <path id="Pfad_1519" data-name="Pfad 1519" d="M150.792,29.5a.354.354,0,0,0,0,.454.336.336,0,0,0,.272.091" transform="translate(-13.865 -2.714)" fill="#ffed00"/>
    <path id="Pfad_1520" data-name="Pfad 1520" d="M150.879,29.6a.272.272,0,0,0,.182.454v.091a.4.4,0,0,1-.363-.545Z" transform="translate(-13.861 -2.723)"/>
    <path id="Pfad_1521" data-name="Pfad 1521" d="M141.685,29.563l-.454.908c-.182.454-.545.817-.454,1.18s.636.272.908.272a2.252,2.252,0,0,1,.817.091c.182.091.454.363.363.636-.091.454-.363.817-.363.726a.418.418,0,0,0-.545-.545,1.217,1.217,0,0,1-1.09-.363.7.7,0,0,0-.182-.272c-.182-.182-.091.182-.636.182-.182,0-.182-.091-.272,0a.534.534,0,0,0-.182.454,1.344,1.344,0,0,1-.091.636,1.534,1.534,0,0,0-.182.454.272.272,0,0,0,.182.363c.091,0,.272,0,.091.091s-.545.182-.726,0-.091,0-.272-.091a.769.769,0,0,1-.272-.817,3.459,3.459,0,0,1,.817-1.18c.091-.091.182-.091.091-.182s-.091-.182-.272-.091-.454.272-.636.363-1.09.272-1.09.182-.182-.091-.272,0a3.571,3.571,0,0,0-.182.545.772.772,0,0,1,0-1c.091-.091-.091-.182,0-.272.182-.363.817-.363,1.09-.363h.726c.182,0,.182.091.272,0s.182-.091.091-.182a5.041,5.041,0,0,0-.545-.726c-.091-.091-.091,0-.272-.091s-.272-.272-.182-.363a.173.173,0,0,0,0-.272.6.6,0,0,0-.636.182s0-.545.454-.636c.272-.091.363-.091.454,0a.173.173,0,0,0,.272,0,.173.173,0,0,1,.272,0c.454.091.545,1.362.636,1.453s.182.182.272.182.091-.091.272-.363a5.232,5.232,0,0,1,.454-.817,2.361,2.361,0,0,0,.272-.636" transform="translate(-12.567 -2.686)" fill="#ffed00"/>
    <path id="Pfad_1522" data-name="Pfad 1522" d="M142.581,33.3h0c.182-.182.182-.454.272-.636a.654.654,0,0,0-.363-.636h-.817c-.272,0-.908,0-.908-.363a3.173,3.173,0,0,1,.454-1.18l.454-.908.091.091-.454.908c-.182.272-.545.817-.454,1.09s.636.272.817.272a2.252,2.252,0,0,1,.817.091.853.853,0,0,1,.091,1.453c-.091.091-.182.091-.182,0a.681.681,0,0,0-.091-.454c-.091-.091-.182-.091-.363-.091a1.416,1.416,0,0,1-1.18-.363l-.091-.182-.091-.091a.645.645,0,0,1-.545.272h-.272c-.091,0-.091.091-.091.363a1.344,1.344,0,0,1-.091.636,1.535,1.535,0,0,0-.182.454.2.2,0,0,0,.091.272s.272,0,.182.091l-.091.091a.908.908,0,0,1-.817,0c-.091-.091-.091,0-.182-.091s-.454-.545-.272-.908a3.459,3.459,0,0,1,.817-1.18l.091-.091v-.091l-.091-.091c-.091,0-.726.363-.817.363a1.979,1.979,0,0,1-1.18.182h-.182c-.091,0-.182.272-.182.363V33.2h-.091c-.182,0-.363-.726,0-1.09,0-.091-.091-.182,0-.272.182-.363.817-.454,1.18-.454h.726c.091,0,.182.091.272,0a.091.091,0,0,0,.091-.091c0-.182-.454-.636-.454-.636H138.4c-.182,0-.545-.272-.363-.454s.091-.182,0-.182a.768.768,0,0,0-.545.182.091.091,0,0,1-.091-.091v-.091a.681.681,0,0,1,.454-.636c.272-.091.454-.091.545.091s.091.091.182,0a.545.545,0,0,1,.363-.091c.363.091.545.908.545,1.271v.272c.091.091.182.182.272.091l.091-.091.091-.182a5.229,5.229,0,0,1,.454-.817l.272-.636.091.091-.272.636c-.182.272-.182.363-.454.817l-.091.182-.091.091c-.182.182-.363.091-.454-.091v-.272c-.091-.272-.182-1.09-.545-1.18h-.272a.272.272,0,0,1-.363,0c-.091-.091-.091-.091-.454,0a.463.463,0,0,0-.363.454.445.445,0,0,1,.636-.091c.182.091.091.272,0,.363s0,.182.182.272h.182l.091.091a5.038,5.038,0,0,1,.545.726c.091.182-.182.272-.272.272h-.817c-.272,0-1.18.091-1.09.454V32.3c-.363.363-.091.817-.091.908v-.182c0-.091.091-.272.091-.363s.182-.091.363-.091a6.7,6.7,0,0,0,1.09-.182c.182-.091.454-.272.636-.363a.091.091,0,0,0,.091-.091h.091l.091.091.091.091v.091a.091.091,0,0,1-.091.091l-.091.091a5.448,5.448,0,0,0-.817,1.18c-.091.272.091.726.182.726a.336.336,0,0,1,.272.091.572.572,0,0,0,.545,0,.327.327,0,0,1-.182-.454c0-.091.091-.182.182-.454a1.344,1.344,0,0,0,.091-.636c0-.182,0-.545.272-.545h.091a.6.6,0,0,0,.545-.091l.091-.091h.091a.2.2,0,0,1,.182.182l.091.182a2.134,2.134,0,0,0,1.09.363.681.681,0,0,1,.454.091c.182,0,.272.182.272.363Z" transform="translate(-12.555 -2.696)"/>
    <path id="Pfad_1523" data-name="Pfad 1523" d="M143.417,32.886s-.545-.454-.817.272" transform="translate(-13.119 -3.013)" fill="#ffed00"/>
    <path id="Pfad_1524" data-name="Pfad 1524" d="M143.408,32.865h0a.518.518,0,0,0-.817.182l-.091-.091c.182-.363.454-.545.817-.363C143.408,32.774,143.5,32.774,143.408,32.865Z" transform="translate(-13.11 -2.992)"/>
    <path id="Pfad_1525" data-name="Pfad 1525" d="M139.635,34.3s-.091-.091-.272,0a.409.409,0,0,0-.363.454" transform="translate(-12.787 -3.151)" fill="#ffed00"/>
    <path id="Pfad_1526" data-name="Pfad 1526" d="M139.645,34.291h-.182c-.091,0-.272.091-.272.363H139.1a.409.409,0,0,1,.363-.454h.272l-.091.091Z" transform="translate(-12.797 -3.146)"/>
    <path id="Pfad_1527" data-name="Pfad 1527" d="M137.354,32.745s.272-.454-.091-.545a2.06,2.06,0,0,0-.363.091" transform="translate(-12.594 -2.962)" fill="#ffed00"/>
    <path id="Pfad_1528" data-name="Pfad 1528" d="M137.254,32.736s.182-.454-.091-.454a.908.908,0,0,0-.272.091l-.091-.091a.091.091,0,0,0,.091-.091c.091,0,.182-.091.272-.091a.363.363,0,0,1,.182.545v.091Z" transform="translate(-12.585 -2.953)"/>
    <path id="Pfad_1529" data-name="Pfad 1529" d="M138.572,29.5a.354.354,0,0,1,0,.454.336.336,0,0,1-.272.091" transform="translate(-12.723 -2.714)" fill="#ffed00"/>
    <path id="Pfad_1530" data-name="Pfad 1530" d="M138.663,29.5h0a.39.39,0,0,1-.182.636H138.3v-.091h.091c.182,0,.182-.272.091-.454l.182-.091Z" transform="translate(-12.723 -2.714)"/>
    <path id="Pfad_1531" data-name="Pfad 1531" d="M143.3,36.791a1.289,1.289,0,0,1-.363-.182c-.182-.091-.091-.182-.091-.363s0-.182-.091-.182-.272.272-.454.182,0-.091-.182-.182-.363.182-.454.182a.127.127,0,0,1-.182,0c-.182,0,0-.182.091-.454a2.506,2.506,0,0,1,.636-.817.908.908,0,0,0,.363-.726c0-.272,0-.272-.182-.182a.908.908,0,0,0-.272.545c-.091.363-.454.363-.908.454a6.356,6.356,0,0,0-1.18.182c-.091.091-.091.182-.182.182s-.182-.182-.272-.363.091-.545.454-.817.817,0,1.271-.091.363-.182.545-.363.636-.454.726-.636a.845.845,0,0,0,.091-.636c0-.182,0-.091-.182.091s-.091.272-.545.817a1.108,1.108,0,0,1-1.271.363c-.363-.091-.363-.363-1-.636a1.253,1.253,0,0,0-1.453.454.808.808,0,0,1-.908,0c-.182-.091-.091-.091,0-.182h.363c.182,0,.182-.272.454-.636a1.671,1.671,0,0,1,1.09-.726c.636-.182,1.453.726,2.452.363.545-.182.817-1.09.908-2.088s-.363-4.54-.363-4.722a7.036,7.036,0,0,0-.091-.817,2.059,2.059,0,0,0-.091.363,7.379,7.379,0,0,1-.182.817,4.131,4.131,0,0,1-.817,1.09s-.817.363-.908-.454a12.912,12.912,0,0,1,.454-4.812,14.856,14.856,0,0,0,.091-1.816v-.817a1.307,1.307,0,0,1-.182.272h-.182l-.091-.182a6.793,6.793,0,0,1-.091,1,12.169,12.169,0,0,1-.182,2.179.672.672,0,0,1-.545.454c-.182,0-.363,0-.454-.182a.173.173,0,0,1,0-.272.091.091,0,0,1,.091-.091c.091,0,.091-.091.182-.363a23,23,0,0,0-.091-2.633l-.091.182h-.182a.282.282,0,0,1-.091-.182s-.091,4.54-.272,5.72-.636,1.18-.817,1.271a.908.908,0,0,1-.636-.182.363.363,0,0,1-.182-.363c0-.091.091,0,.182,0s.272-.182.363-.363.091-.545.182-.726-.091-5.539-.091-5.539l-.091.182a.2.2,0,0,1-.272.091l-.272-.272v2.906c0,.454-.182,3.45-.182,4.54a10.559,10.559,0,0,1-.454,2.633.99.99,0,0,1-1.18.545.908.908,0,0,1-.363-.636c0-.182.091-.182.091-.182a.336.336,0,0,0,.272-.091c.182-.091.091-.091.272-.636s.182-6.538.182-6.538v-3a.281.281,0,0,1-.091.182.173.173,0,0,1-.272,0,.445.445,0,0,1-.091-.272,44.3,44.3,0,0,1-.363,4.449c-.182,1-.545,2.452-1.09,2.815a1.1,1.1,0,0,1-.908.091c-.272-.091-.272-.363-.454-.454,0-.091,0-.182.182-.272s.091.091.182.091.182,0,.363-.272a6.484,6.484,0,0,0,.363-1.453c.091-.636.363-4.086.363-4.449v-1.09a.318.318,0,0,0-.091.182c-.091.091-.272,0-.363-.091a.445.445,0,0,1-.091-.272v.182c0,.272-.182,3.087-.726,3.814-.454.545-.908.545-1.18.363s-.272-.363-.363-.545v-.182c0-.091.091,0,.182.091s.272-.091.363-.272a8.226,8.226,0,0,0,.363-2.452c.091-.636.091-2.542.182-3a11.162,11.162,0,0,1,.182-1.18c0-.182-.091-.091-.182.091s-.272.091-.272-.091v-.272a7.843,7.843,0,0,0-.454,1.362,1.416,1.416,0,0,1-.545.726.554.554,0,0,1-.726,0,.79.79,0,0,1-.454-.636c0-.182,0-.272.182-.363h.272c.182,0,.363-.454.454-.636s.091-1.18.182-1.725a13.625,13.625,0,0,1,.182-1.816c.091-.545,2-4.722,2-4.722a.445.445,0,0,0-.272.091,3.024,3.024,0,0,1-.545.272,1.262,1.262,0,0,1-.817,0c-.272-.091-.272-.272-.454-.545a.908.908,0,0,1,.182-.726.172.172,0,0,1,.272,0c.091.091,0,.091.091.272s.091.272.454.363a1.189,1.189,0,0,0,1.09-.272c.363-.182.636-.636.545-.908a.962.962,0,0,0-.636-.545,1.117,1.117,0,0,1-.454-.726.708.708,0,0,0-.272-.636c-.182-.182-.363,0-.545.091a1.68,1.68,0,0,1-.636.182c-.272,0-.454-.272-.636-.545s-.182-.363-.091-.454.091,0,.091,0a1.348,1.348,0,0,0,.636.454c.363.091.545-.272,1-.454s.817.272.908.545.091.817.182,1,.091.182.454.363a1.371,1.371,0,0,0,.726.182c.182-.091.182-.091.272-.272s.636-.454.908-.636.454-.091.817-.091.363.363.454.726a2.452,2.452,0,0,1-.272,1.362,6.8,6.8,0,0,0-.363,1.453,2.724,2.724,0,0,0,.545,1.453.735.735,0,0,0,.726.363,1.707,1.707,0,0,0,.726-.182,2.17,2.17,0,0,1,.817.272,6.19,6.19,0,0,1,.454.636,1.18,1.18,0,0,1-.091,1.09,2.261,2.261,0,0,1-.454.636c-.091.182,0,.182.091.272s.182,0,.272.091.091.091.091.182-.182.182-.363.182a.8.8,0,0,1-.726-.182.826.826,0,0,1-.272-.636,1.916,1.916,0,0,1,.363-.908.545.545,0,0,0,0-.636c-.091-.272-.272-.182-.726-.091a1.689,1.689,0,0,1-1-.363c-.454-.272-.454-.636-.636-1s0-.454-.091-.454-.182.363-.182.454l-.272.272a1.289,1.289,0,0,0-.182.545V10.1c0,.182.091.272.182.454a.983.983,0,0,1,.091.545.908.908,0,0,0,.272.363c.182.182.182.454.272.545s.182.091.363.182a1.9,1.9,0,0,1,.545.363.763.763,0,0,0,.636.182,4.858,4.858,0,0,0,1.362.091,2.2,2.2,0,0,1,.817,0c.272,0,.091,0,.272.091s.182.182.363.272a.571.571,0,0,0,.545,0,.908.908,0,0,0,.545-.454,3.024,3.024,0,0,1,.272-.545c.091-.091.272-.182.091-.272s-.182-.091-.363,0-.182.182-.182.091a.908.908,0,0,1,.091-.636c.182-.272.908-.545,1.271-.908s.545-.636.545-.908.091-.363,0-.454a.17.17,0,0,0-.272,0c-.091.091-.182.182-.182,0a.545.545,0,0,1,.454-.545c.363-.091.363-.091.454-.272a.686.686,0,0,0,.091-.363c0-.091-.091-.726-.454-.817H142.3a1.317,1.317,0,0,0-.636.182c-.182.091-.454.272-.636.363s-.182.182-.272.091-.182-.091,0-.091a2.407,2.407,0,0,0,.545-.454.981.981,0,0,1,.636-.272c.182,0,.817-.091,1-.091.545,0,.726-.454.636-.545-1.09-.545-1.09-.545-2.179-1.18a1.208,1.208,0,0,0-.454-.272c-.091,0-.091-.091,0-.182h.091a10.232,10.232,0,0,1,.908-1.09,3.132,3.132,0,0,1,1.09-.817c.363-.182.454-.091.636-.182s.272-.182.454-.182.091-.091.363,0a1.453,1.453,0,0,0,.726.272c.091,0,.272-.091.363-.091s.091,0,.091.091-.182.272-.182.272-.091.182,0,.182.182.091.454.182h.545a1.126,1.126,0,0,0,.272-.182s.091,0,.091.182.091.363-.182.454a.971.971,0,0,0-.454.272c-.091.091-.091.091-.091.182s.091.182.272.272.545.272.545.363a.2.2,0,0,0,.182.182h.363c.091,0,.272-.091.363,0a1.979,1.979,0,0,1,.363.454q.136.272.272.272c.091,0,.091,0,0,.091s-.182.182-.363.091-.272-.091-.454-.182-.182,0-.182.091v.545c0,.182,0,.272-.091.363a.282.282,0,0,1-.182.091.962.962,0,0,0,0,.545c.091.272.272.636.272.726s.091.454.091.636a.68.68,0,0,1-.091.454.327.327,0,0,1-.272.182V10.64c0,.182,0,.454-.091.454a.282.282,0,0,1-.182.091s.091.636.091.726v.272c0,.091-.272.182-.272.182l.091.363a1.126,1.126,0,0,1,.272-.182.681.681,0,0,1,.454-.091,2.2,2.2,0,0,1,.817,0,5.23,5.23,0,0,0,1.362-.091.908.908,0,0,0,.636-.182,1.9,1.9,0,0,1,.545-.363c.182-.091.272-.091.363-.182s.091-.454.272-.545.272-.091.272-.363a.983.983,0,0,1,.091-.545c.091-.182.182-.182.182-.454V8.824a1.29,1.29,0,0,0-.182-.545c-.091-.182-.272-.182-.272-.272s-.091-.454-.182-.454.091.091-.091.454a1.371,1.371,0,0,1-.636,1,1.689,1.689,0,0,1-1,.363c-.363,0-.636-.091-.726.091a.541.541,0,0,0,0,.636,1.916,1.916,0,0,1,.363.908c0,.272,0,.454-.272.636a.981.981,0,0,1-.726.182c-.182-.091-.363-.091-.363-.182s-.091-.182.091-.182a.336.336,0,0,0,.272-.091c.091-.091.182-.091.091-.272s-.272-.363-.454-.636-.363-.817-.091-1.09a6.188,6.188,0,0,1,.454-.636,1.725,1.725,0,0,1,.817-.272,2.805,2.805,0,0,1,.726.182.736.736,0,0,0,.726-.363,3.041,3.041,0,0,0,.545-1.453,3.423,3.423,0,0,0-.363-1.453,4.022,4.022,0,0,1-.272-1.362c.091-.363.182-.726.454-.726s.545-.091.817.091.817.454.908.636.091.272.272.272a.8.8,0,0,0,.726-.182c.363-.182.363-.182.454-.363s.091-.726.182-1,.454-.726.908-.545.726.545,1,.454.545-.454.636-.454.091-.091.091,0a.475.475,0,0,1-.091.454c-.182.272-.363.545-.636.545a1.317,1.317,0,0,1-.636-.182c-.272-.091-.363-.182-.545-.091s-.182.363-.272.636a.908.908,0,0,1-.454.726c-.182.091-.545.272-.636.545s.272.726.545.908a1.634,1.634,0,0,0,1.09.272c.363-.091.454-.182.454-.363s0-.272.091-.272a.173.173,0,0,1,.272,0,.908.908,0,0,1,.182.726c-.091.272-.182.454-.454.545a1.262,1.262,0,0,1-.817,0,1.48,1.48,0,0,1-.545-.272.282.282,0,0,0-.182-.091s1.907,4.086,2,4.722a12.3,12.3,0,0,1,.182,1.816,9.143,9.143,0,0,0,.182,1.725c.091.272.272.636.454.636h.272c.182,0,.182.182.182.363a.645.645,0,0,1-.454.636,1,1,0,0,1-.726,0,1.416,1.416,0,0,1-.545-.726c-.091-.272-.091-.636-.182-.726s-.182-.636-.182-.545a.334.334,0,0,1-.091.272.272.272,0,0,1-.363,0c-.091-.182-.182-.272-.182-.091a9.532,9.532,0,0,0,.182,1.18c.091.454.091,2.361.182,3s.272,2.27.363,2.452.272.363.363.272.182-.182.182-.091.091,0,0,.182a.654.654,0,0,1-.363.545c-.272.182-.726.182-1.18-.363-.545-.726-.726-3.541-.726-3.814v-.182a.908.908,0,0,0-.091.272c-.091.091-.272.182-.363.091a.281.281,0,0,1-.091-.182v1.09c0,.363.272,3.9.363,4.449a6.484,6.484,0,0,0,.363,1.453c.091.182.182.272.363.272s.091-.182.182-.091.182.182.182.272a.745.745,0,0,1-.454.454.844.844,0,0,1-.908-.091c-.545-.363-.908-1.816-1.09-2.815a44.292,44.292,0,0,1-.363-4.449.445.445,0,0,1-.091.272c-.091.091-.272.091-.272,0a.318.318,0,0,0-.091-.182v3s0,5.993.182,6.538.091.545.272.636.182.091.272.091.091,0,.091.182a.79.79,0,0,1-.363.636.962.962,0,0,1-1.18-.545,7.591,7.591,0,0,1-.454-2.633c-.091-1.09-.182-4.086-.182-4.54V18.812l-.272.272c-.091.091-.272.091-.272-.091l-.091-.182s-.091,5.357-.091,5.539a1.09,1.09,0,0,0,.182.726c.091.182.272.363.363.363s.182-.091.182,0a.363.363,0,0,1-.182.363,1.68,1.68,0,0,1-.636.182c-.182,0-.726-.182-.817-1.271s-.272-5.72-.272-5.72l-.091.182h-.182l-.091-.182s-.091,2.361-.091,2.633.091.363.182.363.091,0,.091.091v.272c-.091.182-.272.182-.454.182a.672.672,0,0,1-.545-.454,14,14,0,0,1-.182-2.179,5.691,5.691,0,0,0-.091-1l-.091.182c0,.091-.182.091-.182,0a1.307,1.307,0,0,1-.182-.272v.817a6.628,6.628,0,0,0,.091,1.816,14.364,14.364,0,0,1,.454,4.722c-.091.908-.908.454-.908.454a4.132,4.132,0,0,1-.817-1.09,7.389,7.389,0,0,1-.182-.817,2.061,2.061,0,0,0-.091-.363s-.091.636-.091.817-.454,3.723-.363,4.722.363,1.907.908,2.088c1,.363,1.907-.545,2.452-.363s.908.272,1.09.726.182.636.454.636h.363c.091,0,.182.091,0,.182a.672.672,0,0,1-.908,0,1.208,1.208,0,0,0-1.453-.454c-.636.272-.726.545-1,.636a.972.972,0,0,1-1.271-.363c-.454-.545-.363-.636-.545-.817s-.182-.272-.182-.091-.091.454.091.636a4.542,4.542,0,0,0,.726.636c.182.182.182.363.545.363s.908-.182,1.271.091.545.545.454.817-.091.363-.272.363-.091,0-.182-.182a6.356,6.356,0,0,0-1.18-.182c-.545-.091-.817-.091-.908-.454a.908.908,0,0,0-.272-.545c-.091-.091-.182-.091-.182.182s.091.363.363.726.636.545.636.817.182.454,0,.454H145.3a1.308,1.308,0,0,1-.272-.182c-.091-.091-.182,0-.272.091s-.272-.182-.454-.182-.091.091-.091.182.091.272-.091.363c-.454.636-.817.726-.817.726Z" transform="translate(-11.914 -0.198)" fill="#e30613"/>
    <path id="Pfad_1532" data-name="Pfad 1532" d="M141.242,9.012a1.988,1.988,0,0,1,.454-.272,15.291,15.291,0,0,1,2.361-.545c.636-.091.726-.545.817-.817a.844.844,0,0,0-.454-.908c-.636-.363-1-.363-1.271-.545,0,0,.272,0,.272-.182a.318.318,0,0,0-.545-.182c-.091.091,0,.272,0,.272a5.356,5.356,0,0,1-.726-.363c-.091-.091-.545-.363-.636-.272-2.088.636-1.907,1.907-1.725,2.27a1.18,1.18,0,0,0,1.271.817l-.182-.182c-.363-.363-.272-.817,0-.817a.572.572,0,0,1,.545,0,1.48,1.48,0,0,0,.636,0A1.289,1.289,0,0,1,142.6,7.1a.972.972,0,0,1,.545-.182h.817c.454.091.636.636.272.817a2.134,2.134,0,0,1-1.09.363,4.24,4.24,0,0,0-1.271.363.908.908,0,0,0-.636.545Z" transform="translate(-12.851 -0.477)" fill="#ffed00"/>
    <path id="Pfad_1533" data-name="Pfad 1533" d="M141.328,8.914h0c.182-.091.272-.182.363-.182a6.438,6.438,0,0,1,1.544-.363,6.81,6.81,0,0,1,1.09-.091v.091a9.561,9.561,0,0,1-1.09.091,6.438,6.438,0,0,0-1.544.363c-.091,0-.182.091-.272.182l-.272.182s0-.182.091-.182a1.544,1.544,0,0,1,1.18-.908,6.356,6.356,0,0,0,1.725-.545.39.39,0,0,0-.182-.726,2.234,2.234,0,0,0-1.09.091l-.272.091c-.454.182-.636.363-1.18.272-.182,0-.363-.091-.545,0a.463.463,0,0,0,0,.726l.182.182h0v.091a1.162,1.162,0,0,1-1.362-.817c-.091-.454-.363-1.725,1.816-2.361a.091.091,0,0,0,.091.091c-2.088.636-1.907,1.907-1.725,2.27a.908.908,0,0,0,1.09.726l-.091-.091c-.363-.363-.272-1,.272-1,.363,0,.545.182.908,0a1.289,1.289,0,0,1,.545-.182l.272-.091a5.176,5.176,0,0,1,1.18-.091c.454.091.726.636.272.908a10.615,10.615,0,0,1-1.816.545,1.662,1.662,0,0,0-1.18.726Z" transform="translate(-12.846 -0.469)"/>
    <path id="Pfad_1534" data-name="Pfad 1534" d="M148.7,14.93a10.478,10.478,0,0,0,4.722-1.453A8.989,8.989,0,0,0,157.144,9.3c.091.091.726,1.634,1,2.361a13.329,13.329,0,0,1-3.541,2.088,15.291,15.291,0,0,1-5.811,1.453V14.93Z" transform="translate(-13.68 -0.856)" fill="#ffed00"/>
    <path id="Pfad_1535" data-name="Pfad 1535" d="M140.016,14.93a11.132,11.132,0,0,1-4.994-1.453A8.989,8.989,0,0,1,131.3,9.3c-.091.091-.726,1.634-1,2.361a12.921,12.921,0,0,0,3.632,2.088,16.09,16.09,0,0,0,5.993,1.453Z" transform="translate(-11.987 -0.856)" fill="#ffed00"/>
    <path id="Pfad_1536" data-name="Pfad 1536" d="M143.559,6.046a.191.191,0,0,0,.182-.272c0-.182-.454-.363-.545-.182s0,.272,0,.272Z" transform="translate(-13.17 -0.508)"/>
  </g>
</svg>
