<svg id="Layer_1" data-name="Layer 1" xmlns="http://www.w3.org/2000/svg" viewBox="0 0 483 483"><defs><style>.cls-1{fill:#00a996;}.cls-2{fill:#fff;}</style></defs><rect class="cls-1" width="483" height="483"/><path class="cls-2" d="M753,448.19V680.31A38.73,38.73,0,0,1,714.31,719h-58V612.61h29l19.34-48.36H656.28V525.56c0-10.67,8.67-9.67,19.34-9.67H695V467.53H656.28a58,58,0,0,0-58,58v38.69H559.56v48.36h38.69V719H482.19a38.73,38.73,0,0,1-38.69-38.69V448.19a38.73,38.73,0,0,1,38.69-38.69H714.31A38.73,38.73,0,0,1,753,448.19Z" transform="translate(-356.75 -322.75)"/></svg>