<?xml version="1.0" encoding="utf-8"?>
<!-- Generator: Adobe Illustrator 25.2.0, SVG Export Plug-In . SVG Version: 6.00 Build 0)  -->
<svg version="1.1" xmlns="http://www.w3.org/2000/svg" xmlns:xlink="http://www.w3.org/1999/xlink" x="0px" y="0px"
	 viewBox="0 0 517.4 173.5" style="enable-background:new 0 0 517.4 173.5;" xml:space="preserve">
<style type="text/css">
	.st0{fill:#FFFFFF;}
</style>
<g id="Livello_2">
</g>
<g id="Livello_1">
	<g>
		<g>
			<g>
				<g>
					<path class="st0" d="M41.9,85.5h-9.4v-53h9.4V85.5z"/>
					<path class="st0" d="M78.4,54.1c4.8,7.2,7.2,11,10.1,16.1h0.1C88.5,67,88.1,57,88.1,50.3V32.6h9.3v53h-8.7l-15.1-23
						c-5.3-8-6.6-10.6-9.3-15.1h-0.1c0.1,5.6,0.3,12.6,0.3,20.4v17.7h-9.3v-53H64L78.4,54.1z"/>
					<path class="st0" d="M133.5,54.1c4.8,7.2,7.2,11,10.1,16.1h0.1c-0.2-3.1-0.5-13.2-0.5-19.8V32.6h9.3v53h-8.7l-15.1-23
						c-5.3-8-6.6-10.6-9.3-15.1h-0.1c0.1,5.6,0.3,12.6,0.3,20.4v17.7h-9.3v-53h8.7L133.5,54.1z"/>
					<path class="st0" d="M187.4,31.6c15.4,0,25.1,11.2,25.1,27.5c0,16.1-9,27.5-25.1,27.5c-16.1,0-25.1-11.3-25.1-27.5
						C162.3,42.8,172,31.6,187.4,31.6z M187.4,78c9.4,0,14.9-7.4,14.9-19c0-11.5-5.6-19.1-14.9-19.1s-14.9,7.6-14.9,19.1
						C172.5,70.6,178,78,187.4,78z"/>
					<path class="st0" d="M235.4,63.4c1.4,4.6,2,6.9,3.2,11.6h0.2c1.2-4.4,2-7.3,3.5-12l9.4-30.4h9.7l-17.2,53h-11.5l-16.5-53h9.8
						L235.4,63.4z"/>
					<path class="st0" d="M268.7,85.6h-9.4l18.5-53h10.6l18.3,53h-9.7L293,73.2h-20L268.7,85.6z M286.7,53.1
						c-1.2-4-2.7-8.7-3.7-12.6h-0.1c-1.1,3.9-2.7,9-3.9,13.2l-3.5,11.5h14.8L286.7,53.1z"/>
					<path class="st0" d="M324.2,32.6V77h22.8v8.6h-32.2v-53H324.2z"/>
					<path class="st0" d="M365.4,32.6V77h22.8v8.6H356v-53H365.4z"/>
					<path class="st0" d="M404.6,40.9V54H430v8.3h-25.4v14.9h29.9v8.3h-39.1v-53h37.1v8.3H404.6z"/>
					<path class="st0" d="M467.3,85.6H458V63.9l-19.3-31.4h10.8l13.6,22.7l13.8-22.7h10.8l-20.4,31.4V85.6z"/>
				</g>
			</g>
			<g>
				<path class="st0" d="M52.5,114.8c-2.1-2.7-4.9-4.3-8.7-4.3c-4.4,0-7.7,2.3-7.7,5.8c0,3.6,2.3,4.9,6.6,5.9l4.5,1
					c5.7,1.2,9.1,3.3,9.1,8.7c0,5.6-4.6,9.7-12,9.7c-7.2,0-11.2-3.8-12.9-7.4l2.7-1.8c1.3,3.4,4.7,6.5,10.3,6.5
					c5.7,0,8.8-2.7,8.8-6.8c0-3.6-2.4-5-7.1-6l-4.1-0.9c-4.9-1.1-8.9-2.7-8.9-8.5c0-5.2,4.4-8.8,11-8.8c5.7,0,9,2.4,10.9,4.9
					L52.5,114.8z"/>
				<path class="st0" d="M66.3,118.1h2.8v13.1c0,2.9,0.3,4.9,1.4,6.2c0.9,1,2.2,1.5,4.1,1.5c4.7,0,6.5-3.8,6.5-7.2v-13.6h2.8V141
					h-2.8v-3.7h0c-0.9,2.2-3.3,4.3-7.2,4.3c-2.4,0-4.3-0.7-5.7-2.2c-1.3-1.4-2-3.4-2-6.9V118.1z M69.3,109.7h3v4.4h-3V109.7z
					 M78.3,109.7h3v4.4h-3V109.7z"/>
				<path class="st0" d="M94.6,129.7c0-7.6,4-12,9.6-12c3.6,0,6.3,2.1,7.4,4.6v-13.9h2.8V141h-2.8v-4.1c-1.2,2.7-3.7,4.7-7.6,4.7
					C98.5,141.6,94.6,137.3,94.6,129.7z M104.8,120.1c-4.4,0-7.2,3.3-7.2,9.5c0,6.1,2.6,9.6,7.1,9.6c4.4,0,7.1-3.4,7.1-9.5
					C111.8,123.4,109.1,120.1,104.8,120.1z"/>
				<path class="st0" d="M124,118.1h4.6v-8.5l2.8-0.6v9.2h5.5v2.2h-5.5v15.4c0,2.5,0.7,3.2,2.6,3.2c1.2,0,2.2-0.4,2.9-0.7v2.6
					c-0.8,0.3-2.2,0.7-3.6,0.7c-2.9,0-4.8-1.1-4.8-5.1v-16.1H124V118.1z"/>
				<path class="st0" d="M149.7,113.1h-2.8v-4.7h2.8V113.1z M149.7,141h-2.8v-22.8h2.8V141z"/>
				<path class="st0" d="M173.3,120.5c-0.5-0.1-1.1-0.1-1.6-0.1c-4,0-6.9,3.1-6.9,7.7V141H162v-22.8h2.8v4.5h0
					c0.8-2.7,3.5-5.1,6.9-5.1c0.5,0,1,0,1.5,0.1V120.5z"/>
				<path class="st0" d="M190.7,117.6c6.4,0,10.4,4.8,10.4,12c0,7.2-3.9,11.9-10.4,11.9s-10.4-4.7-10.4-11.9
					C180.4,122.4,184.3,117.6,190.7,117.6z M190.7,139.2c4.4,0,7.4-3.6,7.4-9.6c0-6-2.9-9.6-7.4-9.6c-4.5,0-7.4,3.6-7.4,9.6
					C183.3,135.6,186.3,139.2,190.7,139.2z"/>
				<path class="st0" d="M214.6,141h-2.8v-32.6h2.8V141z"/>
				<path class="st0" d="M241.8,141h-3.3l12.7-32.6h3.1l12.6,32.6h-3.4l-3.7-9.8h-14.4L241.8,141z M254.1,116c-0.8-2-1.1-2.8-1.4-4
					h0c-0.4,1.2-0.6,1.8-1.5,4l-4.7,12.3h12.2L254.1,116z"/>
				<path class="st0" d="M278.7,141h-2.8v-32.6h2.8V141z"/>
				<path class="st0" d="M288.1,118.1h4.6v-8.5l2.8-0.6v9.2h5.5v2.2h-5.5v15.4c0,2.5,0.7,3.2,2.6,3.2c1.2,0,2.2-0.4,2.9-0.7v2.6
					c-0.8,0.3-2.2,0.7-3.6,0.7c-2.9,0-4.8-1.1-4.8-5.1v-16.1h-4.6V118.1z"/>
				<path class="st0" d="M319.5,117.6c6.4,0,10.4,4.8,10.4,12c0,7.2-3.9,11.9-10.4,11.9s-10.4-4.7-10.4-11.9
					C309.1,122.4,313,117.6,319.5,117.6z M319.5,139.2c4.4,0,7.4-3.6,7.4-9.6c0-6-2.9-9.6-7.4-9.6c-4.5,0-7.4,3.6-7.4,9.6
					C312.1,135.6,315,139.2,319.5,139.2z"/>
				<path class="st0" d="M355.5,141h-3.3l12.7-32.6h3.1l12.6,32.6h-3.4l-3.7-9.8h-14.4L355.5,141z M367.7,116c-0.8-2-1.1-2.8-1.4-4
					h0c-0.4,1.2-0.6,1.8-1.5,4l-4.7,12.3h12.2L367.7,116z"/>
				<path class="st0" d="M387.9,129.7c0-7.6,4-12,9.6-12c3.6,0,6.3,2.1,7.4,4.6v-13.9h2.8V141H405v-4.1c-1.2,2.7-3.7,4.7-7.6,4.7
					C391.8,141.6,387.9,137.3,387.9,129.7z M398.1,120.1c-4.4,0-7.2,3.3-7.2,9.5c0,6.1,2.6,9.6,7.1,9.6c4.4,0,7.1-3.4,7.1-9.5
					C405.1,123.4,402.4,120.1,398.1,120.1z"/>
				<path class="st0" d="M422.9,113.1h-2.8v-4.7h2.8V113.1z M422.9,141h-2.8v-22.8h2.8V141z"/>
				<path class="st0" d="M453.7,140.1c0,7.2-3.1,10.4-9.8,10.4c-6.5,0-9-3.3-9.2-7.5l2.7-0.8c0.3,3.3,1.8,5.9,6.5,5.9
					c6.2,0,7-4.1,7-9v-2.4c-1.2,2.7-3.7,4.5-7.5,4.5c-5.8,0-9.6-4.4-9.6-11.8c0-7.4,4-11.9,9.6-11.9c3.6,0,6.2,1.8,7.4,4.3v-3.7h2.8
					V140.1z M443.9,120.1c-4.4,0-7.2,3.3-7.2,9.3c0,6,2.6,9.3,7.1,9.3c4.4,0,7.1-3.3,7.1-9.3C450.9,123.3,448.2,120.1,443.9,120.1z"
					/>
				<path class="st0" d="M484.9,135.4c-1.3,2.6-4.1,6.2-9.9,6.2c-6.4,0-10.6-4.4-10.6-12.1c0-7,4.2-11.8,10.3-11.8
					c6.6,0,10,5.1,10,11.9v0.4h-17.4v0.3c0,6,3.5,8.9,7.7,8.9c4.4,0,6.6-2.9,7.7-5.1L484.9,135.4z M467.4,127.6h14.2
					c0-3.6-2.5-7.5-6.9-7.5C470.5,120.1,467.8,123,467.4,127.6z"/>
			</g>
		</g>
	</g>
</g>
</svg>
