<svg xmlns="http://www.w3.org/2000/svg" width="30.591" height="33.503" viewBox="0 0 30.591 33.503"><g transform="translate(-21.323 0.001)"><g transform="translate(40.26 2.911)"><g transform="translate(0)"><path d="M308.13,42.651h-8.74a.728.728,0,1,0,0,1.457h8.74a.728.728,0,1,0,0-1.457Z" transform="translate(-298.661 -42.651)" fill="#fff"/></g></g><g transform="translate(46.087 -0.001)"><path d="M388.147,3.126,385.233.213a.728.728,0,1,0-1.03,1.03l2.4,2.4-2.4,2.4a.729.729,0,0,0,1.031,1.03l2.913-2.913A.729.729,0,0,0,388.147,3.126Z" transform="translate(-383.989 0)" fill="#fff"/></g><g transform="translate(21.323 2.911)"><g transform="translate(0)"><path d="M30.8,42.651h-8.74a.728.728,0,1,0,0,1.457H30.8a.728.728,0,1,0,0-1.457Z" transform="translate(-21.328 -42.651)" fill="#fff"/></g></g><g transform="translate(21.323 -0.001)"><g transform="translate(0 0)"><path d="M23.082,3.64l2.4-2.4a.728.728,0,0,0-1.03-1.03L21.536,3.126a.729.729,0,0,0,0,1.03l2.913,2.913a.732.732,0,0,0,.516.213.721.721,0,0,0,.514-.214.729.729,0,0,0,0-1.03Z" transform="translate(-21.323 0.001)" fill="#fff"/></g></g><g transform="translate(24.84 4.368)"><g transform="translate(0)"><path d="M96.993,74.181a2.9,2.9,0,0,0-1.62.492A2.914,2.914,0,0,0,91,73.217a2.921,2.921,0,0,0-2.75-1.949,2.89,2.89,0,0,0-1.457.392V66.9a2.913,2.913,0,0,0-5.827,0V79.279l-2.532-1.9a3.819,3.819,0,0,0-4.966.353,2.187,2.187,0,0,0,0,3.09L83.844,91.2a6.515,6.515,0,0,0,4.637,1.92h3.413a8.021,8.021,0,0,0,8.012-8.012V77.094A2.916,2.916,0,0,0,96.993,74.181Zm1.457,10.925a6.563,6.563,0,0,1-6.555,6.555H88.481a5.066,5.066,0,0,1-3.607-1.493L74.5,79.794a.729.729,0,0,1,0-1.03,2.357,2.357,0,0,1,3.063-.217l3.7,2.772a.728.728,0,0,0,1.165-.583V66.9a1.457,1.457,0,0,1,2.913,0V77.823a.728.728,0,1,0,1.457,0V74.181a1.457,1.457,0,0,1,2.913,0v3.642a.728.728,0,0,0,1.457,0V75.638a1.457,1.457,0,0,1,2.913,0v2.185a.728.728,0,0,0,1.457,0v-.728a1.457,1.457,0,1,1,2.913,0v8.012Z" transform="translate(-72.832 -63.984)" fill="#fff"/></g></g></g></svg>