<svg xmlns="http://www.w3.org/2000/svg" viewBox="0 0 272.79 130.15"><defs><style>.cls-1{fill:#1d1d1b;}</style></defs><g id="Layer_2" data-name="Layer 2"><g id="Ebene_1" data-name="Ebene 1"><path class="cls-1" d="M241,0H229V53.2h11.73V35.75c0-8.53-.54-17.37-.54-17.37h.07s5.09,9.39,8.06,14.32l12.6,20.5h11.89V0H261.13V17.76c0,6.18.47,16.66.47,16.66h-.08s-3.6-6.65-7.82-13.61ZM218.34,10.41V0H181V53.2h39.19V42.71H192.68V31.21h23.16V20.89H192.68V10.41ZM155.76,24.8,174.14,0H159.82L149.18,16.19,138.15,0h-14.7l18.22,25.5-20.1,27.7h13.61l13.3-19.4,12.91,19.4H176ZM116.64,0H104.83V53.2h11.81ZM64.38,10.33h9.31c3,0,5.79.15,7.67,1.4a5.7,5.7,0,0,1,2.5,5.17,5.7,5.7,0,0,1-2.5,5.16c-1.88,1.25-4.69,1.41-7.67,1.41H64.38Zm7.9,23.31L84.18,53.2H97.55L84.33,32.15C91.22,30.28,95.52,25,95.52,16.9c0-7.83-4.07-12.75-10.25-15.26C82.45.55,78.54,0,72.6,0H52.65V53.2H64.38V33.64ZM23.7,53.2c7,0,10-.78,12.76-2.27,4.53-2.5,7.19-6.73,7.19-12.67,0-7.51-4.77-11.5-10.32-13.15V25c4.38-1.48,8.37-5.16,8.37-11.26A12.55,12.55,0,0,0,34.81,2C32.23.7,29.18,0,22.69,0H0V53.2ZM30,15.33a5.86,5.86,0,0,1-1.64,4.38C26.91,21,25.27,21.2,21.2,21.2H11.66V9.86h9.62c3.6,0,5.32.23,6.73,1.17a5.1,5.1,0,0,1,2,4.3M11.66,30.2h9.85a23.51,23.51,0,0,1,6.26.55c2.35.78,3.84,2.81,3.84,5.78,0,2.59-.94,4.62-2.51,5.56s-3.44,1.17-7.59,1.17H11.66Z"/><rect class="cls-1" x="116.62" y="118.34" width="53.2" height="11.81"/></g></g></svg>