<svg id="Layer_1" data-name="Layer 1" xmlns="http://www.w3.org/2000/svg" viewBox="0 0 483 483"><defs><style>.cls-1{fill:#00a996;}.cls-2{fill:#fff;}</style></defs><rect class="cls-1" width="483" height="483"/><path class="cls-2" d="M760.19,503c-.75-17-3.5-28.66-7.43-38.78A81.88,81.88,0,0,0,706,417.43c-10.18-3.93-21.8-6.68-38.78-7.43s-22.55-1-66-1-48.84.19-65.89.94-28.67,3.5-38.78,7.43a81.8,81.8,0,0,0-46.78,46.78c-3.94,10.18-6.68,21.79-7.43,38.78s-1,22.54-1,65.95.18,48.84.93,65.89,3.5,28.66,7.44,38.78a81.9,81.9,0,0,0,46.77,46.78c10.18,3.93,21.8,6.68,38.79,7.43s22.48.93,65.88.93,48.84-.18,65.89-.93,28.67-3.5,38.78-7.43a81.77,81.77,0,0,0,46.78-46.78c3.93-10.18,6.68-21.8,7.43-38.78s.94-22.49.94-65.89S760.94,520,760.19,503ZM731.4,633.52c-.69,15.61-3.31,24-5.5,29.66a53,53,0,0,1-30.35,30.36c-5.62,2.18-14.11,4.8-29.67,5.49-16.86.75-21.92.94-64.57.94s-47.78-.19-64.58-.94c-15.61-.69-24-3.31-29.66-5.49a52.72,52.72,0,0,1-30.29-30.29c-2.19-5.62-4.81-14.12-5.5-29.67-.75-16.86-.93-21.92-.93-64.58s.18-47.77.93-64.57c.69-15.61,3.31-24.05,5.5-29.67a48.58,48.58,0,0,1,12-18.36,49.64,49.64,0,0,1,18.36-11.93c5.62-2.18,14.11-4.8,29.66-5.49,16.87-.75,21.93-.94,64.58-.94s47.78.19,64.58.94c15.61.69,24,3.31,29.66,5.49a52.72,52.72,0,0,1,30.29,30.29c2.19,5.62,4.81,14.12,5.5,29.67.75,16.86.94,21.92.94,64.57S732.15,616.66,731.4,633.52Z" transform="translate(-356.75 -322.75)"/><path class="cls-2" d="M601.25,486.75a82.13,82.13,0,1,0,82.12,82.13A82.15,82.15,0,0,0,601.25,486.75Zm0,135.4a53.27,53.27,0,1,1,53.27-53.27A53.28,53.28,0,0,1,601.25,622.15Z" transform="translate(-356.75 -322.75)"/><path class="cls-2" d="M705.79,483.51a19.17,19.17,0,1,1-19.17-19.18A19.17,19.17,0,0,1,705.79,483.51Z" transform="translate(-356.75 -322.75)"/></svg>