<svg id="Layer_1" data-name="Layer 1" xmlns="http://www.w3.org/2000/svg" viewBox="0 0 483 483"><defs><style>.cls-1{fill:#00a996;}.cls-2{fill:#fff;}</style></defs><rect class="cls-1" width="483" height="483"/><g id="post-linkedin"><path class="cls-2" d="M1087.07,410.58H833.93a31.74,31.74,0,0,0-31.64,31.64V695.36A31.74,31.74,0,0,0,833.93,727h253.14a31.74,31.74,0,0,0,31.64-31.64V442.22A31.74,31.74,0,0,0,1087.07,410.58Zm-189.85,269H849.75V537.15h47.47ZM873.48,510.25A28.48,28.48,0,1,1,902,481.77,28.36,28.36,0,0,1,873.48,510.25Zm197.77,169.29h-47.47V595.68c0-12.65-11.07-23.73-23.73-23.73S976.32,583,976.32,595.68v83.86H928.86V537.15h47.46v19c7.91-12.65,25.31-22.15,39.55-22.15,30.06,0,55.38,25.32,55.38,55.38Z" transform="translate(-719 -322.75)"/></g></svg>