<svg xmlns="http://www.w3.org/2000/svg" width="32.473" height="33.404" viewBox="0 0 32.473 33.404"><g transform="translate(-2.949)"><path d="M118.266,4.376A14.843,14.843,0,0,0,107.7,0a1.184,1.184,0,0,0,0,2.368,12.573,12.573,0,0,1,12.573,12.573,1.184,1.184,0,0,0,2.368,0A14.842,14.842,0,0,0,118.266,4.376Z" transform="translate(-87.22)" fill="#fff"/><path d="M113.4,51.641a1.184,1.184,0,0,0,2.368,0,8.073,8.073,0,0,0-8.063-8.062h0a1.184,1.184,0,0,0,0,2.368A5.7,5.7,0,0,1,113.4,51.641Z" transform="translate(-87.22 -36.699)" fill="#fff"/><path d="M23.556,47.788a3.574,3.574,0,0,0-3.165,1.893,1.184,1.184,0,1,0,1.954,1.337c.521-.762.757-.881,1.077-.866,1.025.12,5.06,3.078,5.464,4a1.225,1.225,0,0,1-.011.864,4.085,4.085,0,0,1-2.028,2.555,3.8,3.8,0,0,1-3.043-.1,33.458,33.458,0,0,1-10.975-7.146l0,0A33.453,33.453,0,0,1,5.693,39.36a3.8,3.8,0,0,1-.1-3.044,4.084,4.084,0,0,1,2.554-2.028,1.223,1.223,0,0,1,.862-.012c.928.406,3.885,4.441,4,5.454.017.332-.1.568-.865,1.088a1.184,1.184,0,1,0,1.336,1.955A3.571,3.571,0,0,0,15.375,39.6c-.1-1.891-3.782-6.9-5.54-7.546a3.579,3.579,0,0,0-2.445-.014A6.372,6.372,0,0,0,3.438,35.33,6.094,6.094,0,0,0,3.5,40.253,35.808,35.808,0,0,0,11.155,52l.024.024a35.817,35.817,0,0,0,11.733,7.641,7.024,7.024,0,0,0,2.643.551,5.426,5.426,0,0,0,2.279-.489,6.371,6.371,0,0,0,3.286-3.953,3.58,3.58,0,0,0-.012-2.44C30.459,51.57,25.45,47.891,23.556,47.788Z" transform="translate(0 -26.811)" fill="#fff"/></g></svg>