<svg id="Layer_1" data-name="Layer 1" xmlns="http://www.w3.org/2000/svg" viewBox="0 0 483 483"><defs><style>.cls-1{fill:#00a996;}.cls-2{fill:#fff;}</style></defs><rect class="cls-1" width="483" height="483"/><path class="cls-2" d="M860.52,399.46H579a16.75,16.75,0,0,0-16.76,16.75V697.7A16.76,16.76,0,0,0,579,714.46H860.52a16.75,16.75,0,0,0,16.75-16.76V416.21A16.75,16.75,0,0,0,860.52,399.46ZM653.3,608.35H616.37a5.47,5.47,0,0,1-4.83-2.52,5.72,5.72,0,0,1,0-5.67l39.25-69.25a.2.2,0,0,0,0-.21l-25-43.24c-1-2.06-1.18-4.09-.21-5.67s2.82-2.3,5-2.3h36.93c5.67,0,8.45,3.64,10.29,6.92,0,0,25.24,44,25.39,44.28l-39.87,70.52C661.49,604.62,658.83,608.35,653.3,608.35ZM828,437,746.18,581.57a.21.21,0,0,0,0,.24L798.26,677a5.76,5.76,0,0,1,.07,5.7,5.44,5.44,0,0,1-4.9,2.36H756.54c-5.66,0-8.49-3.76-10.32-7,0,0-52.36-96-52.48-96.3l82.19-145.75c2-3.56,4.37-7,9.88-7h37.32a5.47,5.47,0,0,1,4.91,2.35A5.76,5.76,0,0,1,828,437Z" transform="translate(-478.27 -315.46)"/></svg>